<svg width="24" height="24" viewBox="0 0 24 24" fill="none" xmlns="http://www.w3.org/2000/svg">
<path d="M6.86976 6.87C6.0074 7.57873 5.30289 8.46008 4.80155 9.45739C4.3002 10.4547 4.0131 11.5459 3.95872 12.6608C3.90434 13.7757 4.08387 14.8896 4.48578 15.931C4.88769 16.9724 5.50307 17.9181 6.29237 18.7074C7.08166 19.4967 8.02739 20.1121 9.06876 20.514C10.1101 20.9159 11.2241 21.0954 12.339 21.041C13.4539 20.9867 14.5451 20.6996 15.5424 20.1982C16.5397 19.6969 17.421 18.9924 18.1298 18.13M19.9 14.25C20.0968 13.0036 19.996 11.7283 19.6058 10.5282C19.2156 9.32821 18.5471 8.2375 17.6548 7.34522C16.7625 6.45294 15.6718 5.78439 14.4718 5.39418C13.2717 5.00397 11.9964 4.90317 10.75 5.10001M22 6L19 3M6.26 18.67L4 21M2 2L22 22M4 4L2 6" stroke="#09090B" stroke-width="2" stroke-linecap="round" stroke-linejoin="round"/>
</svg>
