<svg width="24" height="24" viewBox="0 0 24 24" fill="none" xmlns="http://www.w3.org/2000/svg">
<path d="M12 7.00001C13 6.44001 14.78 5.00001 17 5.00001C18.2955 4.97582 19.548 5.46468 20.4846 6.36006C21.4212 7.25544 21.9659 8.48474 22 9.78001C22 14 19 22 16 22C14.75 22 13.5 20.94 12 20.94C10.5 20.94 9.25 22 8 22C5 22 2 14 2 9.78001C2.03147 8.48387 2.57536 7.25303 3.51253 6.3571C4.4497 5.46116 5.70375 4.97317 7 5.00001C9.22 5.00001 11 6.44001 12 7.00001ZM12 7.00001C12 4.00001 11 2.5 10 2" stroke="#09090B" stroke-width="2" stroke-linecap="round" stroke-linejoin="round"/>
</svg>
