<svg width="24" height="24" viewBox="0 0 24 24" fill="none" xmlns="http://www.w3.org/2000/svg">
<path d="M5.34082 10.62C5.60446 11.2132 6.00855 11.7334 6.51818 12.1356C7.02782 12.5378 7.62769 12.8099 8.26601 12.9284C8.90432 13.0469 9.56188 13.0083 10.1819 12.8158C10.802 12.6234 11.3658 12.2829 11.8248 11.8238C12.2839 11.3647 12.6242 10.8007 12.8166 10.1806C13.0089 9.56057 13.0474 8.903 12.9288 8.26471C12.8102 7.62643 12.538 7.0266 12.1357 6.51704C11.7334 6.00748 11.2131 5.60349 10.6198 5.33997M10.1652 6.59797C9.95421 7.47797 9.64021 8.35997 9.00021 8.99997C8.36021 9.63997 7.47921 9.95397 6.59821 10.165C5.16877 10.5073 3.91472 11.3624 3.07399 12.5681C2.23327 13.7738 1.86437 15.2461 2.03728 16.7058C2.2102 18.1655 2.9129 19.5109 4.01205 20.4867C5.11121 21.4626 6.53035 22.0011 8.00021 22C15.7322 22 22.0002 15.732 22.0002 7.99997C22.0013 6.53011 21.4629 5.11097 20.487 4.01181C19.5111 2.91265 18.1657 2.20995 16.706 2.03704C15.2464 1.86412 13.774 2.23303 12.5684 3.07375C11.3627 3.91447 10.5075 5.16853 10.1652 6.59797Z" stroke="#09090B" stroke-width="2" stroke-linecap="round" stroke-linejoin="round"/>
</svg>
