<svg width="24" height="24" viewBox="0 0 24 24" fill="none" xmlns="http://www.w3.org/2000/svg">
<path d="M8.7002 3.00001C9.60401 2.4048 10.652 2.06511 11.7331 2.01694C12.8142 1.96876 13.8882 2.21388 14.8414 2.72634C15.7946 3.23879 16.5914 3.99951 17.1475 4.9279C17.7036 5.8563 17.9982 6.91781 18.0002 8.00001C18.0018 9.68453 18.2032 11.3629 18.6002 13M17 17H3C3 17 6 15 6 7.99999C5.99349 7.4196 6.09522 6.84309 6.3 6.29999M10.2998 21C10.4672 21.3044 10.7133 21.5583 11.0123 21.7352C11.3113 21.912 11.6524 22.0053 11.9998 22.0053C12.3472 22.0053 12.6883 21.912 12.9873 21.7352C13.2864 21.5583 13.5324 21.3044 13.6998 21M2 2L22 22" stroke="#09090B" stroke-width="2" stroke-linecap="round" stroke-linejoin="round"/>
</svg>
