<svg width="24" height="24" viewBox="0 0 24 24" fill="none" xmlns="http://www.w3.org/2000/svg">
<path d="M12 13.9001C13.1046 13.9001 14 13.0046 14 11.9001C14 10.7955 13.1046 9.90005 12 9.90005C10.8954 9.90005 10 10.7955 10 11.9001C10 13.0046 10.8954 13.9001 12 13.9001ZM12 13.9001L11.9998 15.5M6.7 3.40002C5.8 5.90002 6.7 8.60002 8.9 10.1M8.9 10.1C6.5 9.00002 3.7 9.60003 2 11.6M8.9 10.1L10.2999 10.9M17.3001 3.40002C18.2001 5.90002 17.3001 8.60002 15.1001 10.1M15.1001 10.1C17.5001 8.90002 20.3001 9.50003 22.0001 11.6M15.1001 10.1L13.7002 10.9M16.6998 20.8C14.0998 20.4 12.0998 18.2 11.9998 15.5M11.9998 15.5C11.7998 18.1 9.8998 20.3 7.2998 20.7M13.5 5.40003C12.5 5.20003 11.5 5.20003 10.5 5.40003M17 16.4001C17.7 15.7001 18.2 14.8001 18.5 13.9001M5.5 13.9001C5.8 14.8001 6.3 15.7001 7 16.4001" stroke="#09090B" stroke-width="2" stroke-linecap="round" stroke-linejoin="round"/>
</svg>
