<svg width="24" height="24" viewBox="0 0 24 24" fill="none" xmlns="http://www.w3.org/2000/svg">
<path d="M19.5 9.49999L21.3 7.69999C21.5237 7.47702 21.7013 7.21207 21.8224 6.92035C21.9435 6.62863 22.0059 6.31586 22.0059 5.99999C22.0059 5.68411 21.9435 5.37134 21.8224 5.07962C21.7013 4.7879 21.5237 4.52295 21.3 4.29999L19.7 2.69999C19.2484 2.25054 18.6372 1.99823 18 1.99823C17.3628 1.99823 16.7516 2.25054 16.3 2.69999L14.5 4.49999M22 2L20.5 3.5M20 13C20 17.9706 15.9706 22 11 22C6.02944 22 2 17.9706 2 13C2 8.02944 6.02944 4 11 4C15.9706 4 20 8.02944 20 13Z" stroke="#09090B" stroke-width="2" stroke-linecap="round" stroke-linejoin="round"/>
</svg>
