<svg width="24" height="24" viewBox="0 0 24 24" fill="none" xmlns="http://www.w3.org/2000/svg">
<path d="M12 19L8.03 21.38C7.71894 21.5669 7.36289 21.6656 7 21.6656C6.63711 21.6656 6.28106 21.5669 5.97 21.38L2.97 19.58C2.67476 19.4026 2.43033 19.152 2.26039 18.8524C2.09045 18.5528 2.00075 18.2144 2 17.87V14.63C2.00075 14.2855 2.09045 13.9471 2.26039 13.6476C2.43033 13.348 2.67476 13.0974 2.97 12.92L7 10.5M12 19V13.5M12 19L15.97 21.38C16.2811 21.5669 16.6371 21.6656 17 21.6656C17.3629 21.6656 17.7189 21.5669 18.03 21.38L21.03 19.58C21.3252 19.4026 21.5697 19.152 21.7396 18.8524C21.9096 18.5528 21.9992 18.2144 22 17.87V14.63C21.9992 14.2855 21.9096 13.9471 21.7396 13.6476C21.5697 13.348 21.3252 13.0974 21.03 12.92L17 10.5M12 13.5L7 10.5M12 13.5L6.99977 16.5M12 13.5L17 10.5M12 13.5L17 16.5M12 13.5L11.9998 7.99996M7 10.5V6.12997C7.00075 5.78554 7.09045 5.44714 7.26039 5.14756C7.43033 4.84797 7.67476 4.59735 7.97 4.41997L10.97 2.61997C11.2811 2.43308 11.6371 2.33435 12 2.33435C12.3629 2.33435 12.7189 2.43308 13.03 2.61997L16.03 4.41997C16.3252 4.59735 16.5697 4.84797 16.7396 5.14756C16.9096 5.44714 16.9992 5.78554 17 6.12997V10.5M6.99977 16.5L2.25977 13.65M6.99977 16.5L7 21.67M17 16.5L21.74 13.65M17 16.5V21.67M11.9998 7.99996L7.25977 5.14996M11.9998 7.99996L16.74 5.14996" stroke="#09090B" stroke-width="2" stroke-linecap="round" stroke-linejoin="round"/>
</svg>
