<svg width="24" height="24" viewBox="0 0 24 24" fill="none" xmlns="http://www.w3.org/2000/svg">
<path d="M15.6998 10.4L14.7998 10.8M9.1998 13.2L8.2998 13.6M13.6002 15.7L13.2002 14.8M10.7999 9.19999L10.3999 8.29999M15.6998 13.5L14.7998 13.1M9.1998 10.9L8.2998 10.5M10.5 15.7L10.9 14.8M13.1001 9.19999L13.5001 8.29999M15 12C15 13.6569 13.6569 15 12 15C10.3431 15 9 13.6569 9 12C9 10.3431 10.3431 9 12 9C13.6569 9 15 10.3431 15 12ZM12.0001 4.5C12.0038 3.87437 11.7728 3.2701 11.3527 2.80649C10.9326 2.34288 10.3539 2.05363 9.73099 1.99586C9.10803 1.93808 8.48605 2.11598 7.98786 2.49443C7.48967 2.87288 7.15149 3.42436 7.04008 4.04C6.71043 4.10176 6.39659 4.22921 6.11722 4.41478C5.83785 4.60034 5.59867 4.84022 5.41393 5.12014C5.22919 5.40005 5.10265 5.71427 5.04186 6.0441C4.98107 6.37393 4.98727 6.71261 5.06008 7.04C4.60874 7.12012 4.18812 7.32279 3.84421 7.62586C3.50029 7.92892 3.24632 8.32071 3.11006 8.75839C2.97381 9.19606 2.96051 9.66278 3.07162 10.1075C3.18273 10.5522 3.41398 10.9578 3.74008 11.28C3.19161 11.5332 2.73237 11.9461 2.42245 12.4646C2.11253 12.9832 1.96637 13.5832 2.00311 14.1862C2.03985 14.7892 2.25778 15.367 2.62836 15.8441C2.99895 16.3212 3.50493 16.6752 4.08008 16.86C3.97027 17.2748 3.96909 17.711 4.07667 18.1264C4.18424 18.5419 4.39695 18.9226 4.69431 19.232C4.99167 19.5415 5.36368 19.7691 5.77452 19.8931C6.18535 20.0171 6.62119 20.0332 7.04008 19.94C7.15123 20.5539 7.48789 21.104 7.98393 21.4824C8.47998 21.8607 9.09957 22.04 9.72099 21.9848C10.3424 21.9297 10.9208 21.6442 11.3425 21.1845C11.7642 20.7247 11.9987 20.1239 12.0001 19.5C12.0014 20.1239 12.236 20.7247 12.6577 21.1845C13.0794 21.6442 13.6577 21.9297 14.2792 21.9848C14.9006 22.04 15.5202 21.8607 16.0162 21.4824C16.5123 21.104 16.8489 20.5539 16.9601 19.94C17.379 20.0332 17.8148 20.0171 18.2256 19.8931C18.6365 19.7691 19.0085 19.5415 19.3059 19.232C19.6032 18.9226 19.8159 18.5419 19.9235 18.1264C20.0311 17.711 20.0299 17.2748 19.9201 16.86C20.4952 16.6752 21.0012 16.3212 21.3718 15.8441C21.7424 15.367 21.9603 14.7892 21.997 14.1862C22.0338 13.5832 21.8876 12.9832 21.5777 12.4646C21.2678 11.9461 20.8086 11.5332 20.2601 11.28C20.5862 10.9578 20.8174 10.5522 20.9285 10.1075C21.0397 9.66278 21.0264 9.19606 20.8901 8.75839C20.7538 8.32071 20.4999 7.92892 20.156 7.62586C19.812 7.32279 19.3914 7.12012 18.9401 7.04C19.0129 6.71261 19.0191 6.37393 18.9583 6.0441C18.8975 5.71427 18.771 5.40005 18.5862 5.12014C18.4015 4.84022 18.1623 4.60034 17.8829 4.41478C17.6036 4.22921 17.2897 4.10176 16.9601 4.04C16.8487 3.42436 16.5105 2.87288 16.0123 2.49443C15.5141 2.11598 14.8921 1.93808 14.2692 1.99586C13.6462 2.05363 13.0676 2.34288 12.6475 2.80649C12.2274 3.2701 11.9964 3.87437 12.0001 4.5Z" stroke="#09090B" stroke-width="2" stroke-linecap="round" stroke-linejoin="round"/>
</svg>
