<svg width="24" height="24" viewBox="0 0 24 24" fill="none" xmlns="http://www.w3.org/2000/svg">
<path d="M12.0001 4.5C12.0001 4.1717 11.9354 3.84661 11.8098 3.54329C11.6841 3.23998 11.5 2.96438 11.2678 2.73223C11.0357 2.50009 10.7601 2.31594 10.4568 2.1903C10.1535 2.06467 9.82839 2 9.50008 2C8.91638 1.99937 8.35086 2.20301 7.90156 2.57561C7.45225 2.9482 7.14748 3.46627 7.04008 4.04C6.71043 4.10176 6.39659 4.22922 6.11722 4.41478C5.83785 4.60035 5.59867 4.84023 5.41393 5.12014C5.22919 5.40006 5.10265 5.71428 5.04186 6.04411C4.98107 6.37393 4.98727 6.71262 5.06008 7.04C4.60874 7.12013 4.18812 7.3228 3.84421 7.62586C3.50029 7.92893 3.24632 8.32072 3.11006 8.75839C2.97381 9.19607 2.96051 9.66278 3.07162 10.1075C3.18273 10.5522 3.41398 10.9578 3.74008 11.28C3.19161 11.5332 2.73237 11.9461 2.42245 12.4647C2.11253 12.9832 1.96637 13.5832 2.00311 14.1862C2.03985 14.7892 2.25778 15.367 2.62836 15.8441C2.99895 16.3212 3.50493 16.6753 4.08008 16.86C3.97027 17.2749 3.96909 17.711 4.07667 18.1264C4.18424 18.5419 4.39695 18.9226 4.69431 19.232C4.99167 19.5415 5.36368 19.7691 5.77452 19.8931C6.18535 20.0171 6.62119 20.0333 7.04008 19.94C7.15123 20.5539 7.48789 21.104 7.98393 21.4824C8.47998 21.8607 9.09957 22.04 9.72099 21.9848C10.3424 21.9297 10.9208 21.6442 11.3425 21.1845C11.7642 20.7247 11.9987 20.1239 12.0001 19.5M12.0001 4.5V19.5M12.0001 4.5C12.0001 3.83696 12.2634 3.20108 12.7322 2.73223C13.2011 2.26339 13.837 2 14.5 2C15.0837 1.99937 15.6492 2.20301 16.0985 2.57561C16.5478 2.9482 16.8526 3.46627 16.96 4.04C17.2896 4.10176 17.6035 4.22922 17.8829 4.41478C18.1622 4.60035 18.4014 4.84023 18.5862 5.12014C18.7709 5.40006 18.8974 5.71428 18.9582 6.04411C19.019 6.37393 19.0128 6.71262 18.94 7.04C19.3913 7.12013 19.812 7.3228 20.1559 7.62586C20.4998 7.92893 20.7538 8.32072 20.89 8.75839C21.0263 9.19607 21.0396 9.66278 20.9285 10.1075C20.8173 10.5522 20.5861 10.9578 20.26 11.28C20.8085 11.5332 21.2677 11.9461 21.5776 12.4647C21.8876 12.9832 22.0337 13.5832 21.997 14.1862C21.9602 14.7892 21.7423 15.367 21.3717 15.8441C21.0011 16.3212 20.4952 16.6753 19.92 16.86C20.0298 17.2749 20.031 17.711 19.9234 18.1264C19.8158 18.5419 19.6031 18.9226 19.3058 19.232C19.0084 19.5415 18.6364 19.7691 18.2256 19.8931C17.8147 20.0171 17.3789 20.0333 16.96 19.94C16.8489 20.5539 16.5122 21.104 16.0161 21.4824C15.5201 21.8607 14.9005 22.04 14.2791 21.9848C13.6577 21.9297 13.0793 21.6442 12.6576 21.1845C12.2359 20.7247 12.0014 20.1239 12.0001 19.5" stroke="#09090B" stroke-width="2" stroke-linecap="round" stroke-linejoin="round"/>
</svg>
