<svg width="24" height="24" viewBox="0 0 24 24" fill="none" xmlns="http://www.w3.org/2000/svg">
<path d="M4.18 4.17999C3.8291 4.33773 3.53114 4.59332 3.32185 4.91613C3.11255 5.23895 3.0008 5.61527 3 5.99999V20C3 20.5304 3.21071 21.0391 3.58579 21.4142C3.96086 21.7893 4.46957 22 5 22H19C19.3847 21.9992 19.761 21.8874 20.0839 21.6781C20.4067 21.4689 20.6623 21.1709 20.82 20.82M21 15.5V6C21 5.46957 20.7893 4.96086 20.4142 4.58579C20.0391 4.21071 19.5304 4 19 4H9.5M16 2V6M3 10H10M21 10H15.5M2 2L22 22" stroke="#09090B" stroke-width="2" stroke-linecap="round" stroke-linejoin="round"/>
</svg>
