<svg width="24" height="24" viewBox="0 0 24 24" fill="none" xmlns="http://www.w3.org/2000/svg">
<path d="M2 2L22 22M7 7H4C3.46957 7 2.96086 7.21071 2.58579 7.58579C2.21071 7.96086 2 8.46957 2 9V18C2 18.5304 2.21071 19.0391 2.58579 19.4142C2.96086 19.7893 3.46957 20 4 20H20M9.5 4H14.5L17 7H20C20.5304 7 21.0391 7.21071 21.4142 7.58579C21.7893 7.96086 22 8.46957 22 9V16.5M14.1209 15.121C13.8453 15.4123 13.5142 15.6454 13.147 15.8066C12.7798 15.9677 12.3841 16.0536 11.9831 16.0592C11.5822 16.0648 11.1842 15.9899 10.8127 15.839C10.4411 15.6882 10.1036 15.4644 9.82009 15.1808C9.53654 14.8973 9.31272 14.5598 9.16185 14.1882C9.01098 13.8167 8.93612 13.4187 8.9417 13.0178C8.94727 12.6168 9.03317 12.2211 9.19431 11.8539C9.35546 11.4867 9.58858 11.1556 9.8799 10.88" stroke="#09090B" stroke-width="2" stroke-linecap="round" stroke-linejoin="round"/>
</svg>
