<svg width="24" height="24" viewBox="0 0 24 24" fill="none" xmlns="http://www.w3.org/2000/svg">
<g clip-path="url(#clip0_206_10721)">
<path d="M17.75 6.99998L15 2.09998M10.8999 4.79999L12.9999 8.99999M7.8999 9.70001L9.8999 14.1M4.8999 14.7L6.9999 18.9M5.70014 21C5.56882 21.2298 5.39352 21.4315 5.18425 21.5936C4.97497 21.7556 4.73583 21.8749 4.48047 21.9445C3.96474 22.0852 3.41427 22.0152 2.95014 21.75C2.48601 21.4848 2.14625 21.046 2.0056 20.5303C1.86494 20.0146 1.93492 19.4641 2.20014 19L10.8001 4.99999C11.5958 3.62086 12.9067 2.6143 14.4445 2.20172C15.9823 1.78913 17.621 2.00434 19.0001 2.79999C20.3793 3.59564 21.3858 4.90656 21.7984 6.44436C22.211 7.98215 21.9958 9.62086 21.2001 11C21.0698 11.2293 20.8953 11.4305 20.6869 11.5921C20.4784 11.7537 20.2401 11.8725 19.9855 11.9416C19.731 12.0107 19.4653 12.0288 19.2037 11.9948C18.9422 11.9608 18.6899 11.8754 18.4615 11.7435C18.2331 11.6116 18.033 11.4359 17.8728 11.2263C17.7125 11.0168 17.5954 10.7777 17.5279 10.5227C17.4605 10.2677 17.4442 10.0019 17.4799 9.74054C17.5157 9.47921 17.6027 9.22753 17.7361 8.99999C17.8695 8.77245 17.9566 8.52077 17.9923 8.25944C18.0281 7.99811 18.0118 7.7323 17.9443 7.4773C17.8769 7.2223 17.7597 6.98315 17.5995 6.77363C17.4393 6.56411 17.2392 6.38835 17.0108 6.25646C16.7824 6.12458 16.5301 6.03918 16.2686 6.00518C16.007 5.97119 15.7413 5.98926 15.4868 6.05837C15.2322 6.12748 14.9938 6.24625 14.7854 6.40786C14.5769 6.56946 14.4025 6.7707 14.2721 6.99999L5.70014 21Z" stroke="#09090B" stroke-width="2" stroke-linecap="round" stroke-linejoin="round"/>
</g>
<defs>
<clipPath id="clip0_206_10721">
<rect width="24" height="24" fill="white"/>
</clipPath>
</defs>
</svg>
