<svg width="24" height="24" viewBox="0 0 24 24" fill="none" xmlns="http://www.w3.org/2000/svg">
<path d="M8.50009 8.5L7.50009 9.5C6.58727 10.4314 6.07893 11.6855 6.08551 12.9896C6.0921 14.2938 6.61309 15.5426 7.53527 16.4648C8.45745 17.387 9.7063 17.908 11.0104 17.9146C12.3146 17.9212 13.5686 17.4128 14.5001 16.5L15.5001 15.5M11.8428 6.18702C12.6665 5.98877 13.5273 6.0054 14.3428 6.23531C15.1582 6.46521 15.9009 6.90069 16.4998 7.50002C17.0991 8.09886 17.5346 8.8416 17.7645 9.65704C17.9944 10.4725 18.011 11.3333 17.8128 12.157M14 16.5V14M14 6.5V8.343M10 10V17.5M16 7L17 2L18.367 2.683C18.7833 2.89128 19.2425 2.99981 19.708 3H21V4.292C21.0002 4.75754 21.1087 5.21665 21.317 5.633L22 7L17 8M8 17L7 22L5.633 21.317C5.21665 21.1087 4.75754 21.0002 4.292 21H3V19.708C2.99981 19.2425 2.89128 18.7833 2.683 18.367L2 17L7 16M2 2L22 22" stroke="#09090B" stroke-width="2" stroke-linecap="round" stroke-linejoin="round"/>
</svg>
