<svg width="24" height="24" viewBox="0 0 24 24" fill="none" xmlns="http://www.w3.org/2000/svg">
<path d="M10 2H14M21 7.99998L19 9.99998M19 9.99998L17.5 6.29998C17.3585 5.92131 17.1057 5.5944 16.7747 5.36233C16.4437 5.13026 16.0502 5.00393 15.646 4.99998H8.4C7.9925 4.99062 7.59188 5.10599 7.25177 5.33064C6.91166 5.5553 6.64832 5.8785 6.497 6.25698L5 9.99998M19 9.99998H5M19 9.99998C20.1046 9.99998 21 10.8954 21 12V16C21 17.1046 20.1046 18 19 18M5 9.99998L3 7.99998M5 9.99998C3.89543 9.99998 3 10.8954 3 12V16C3 17.1046 3.89543 18 5 18M7 14H7.01M17 14H17.01M19 18H5M19 18V20M5 18V20" stroke="#09090B" stroke-width="2" stroke-linecap="round" stroke-linejoin="round"/>
</svg>
