<svg width="24" height="24" viewBox="0 0 24 24" fill="none" xmlns="http://www.w3.org/2000/svg">
<path d="M6 17H18M6.00007 13.87C4.98603 13.6523 4.09621 13.0492 3.51832 12.1879C2.94043 11.3267 2.71964 10.2747 2.90255 9.25376C3.08546 8.23286 3.65775 7.32292 4.4987 6.71588C5.33965 6.10884 6.38351 5.85218 7.41007 6.00003C7.6627 5.42666 8.01862 4.90465 8.46007 4.46003C8.92453 3.99439 9.47629 3.62497 10.0837 3.3729C10.6912 3.12084 11.3424 2.99109 12.0001 2.99109C12.6577 2.99109 13.309 3.12084 13.9164 3.3729C14.5239 3.62497 15.0756 3.99439 15.5401 4.46003C15.9815 4.90465 16.3374 5.42666 16.5901 6.00003C17.6166 5.85218 18.6605 6.10884 19.5014 6.71588C20.3424 7.32292 20.9147 8.23286 21.0976 9.25376C21.2805 10.2747 21.0597 11.3267 20.4818 12.1879C19.9039 13.0492 19.0141 13.6523 18.0001 13.87V21H6.00007V13.87Z" stroke="#09090B" stroke-width="2" stroke-linecap="round" stroke-linejoin="round"/>
</svg>
