<svg width="24" height="24" viewBox="0 0 24 24" fill="none" xmlns="http://www.w3.org/2000/svg">
<path d="M12 17C12 18.3261 11.4732 19.5979 10.5355 20.5356C9.59785 21.4732 8.32608 22 7 22C5.67392 22 4.40215 21.4732 3.46447 20.5356C2.52678 19.5979 2 18.3261 2 17C2 14.24 4.5 12 7 14M12 17C12 14.24 9.5 12 7 14M12 17C12 18.3261 12.5268 19.5979 13.4645 20.5356C14.4021 21.4732 15.6739 22 17 22C18.3261 22 19.5979 21.4732 20.5355 20.5356C21.4732 19.5979 22 18.3261 22 17C22 14.24 19.5 12 17 14M12 17C12 14.24 14.5 12 17 14M7 14C10.22 11.09 11.29 5.25 12 2M17 14C16.94 11 13.66 4.38 12 2M12 2C14.86 6.67 17.71 9 22 9C22 6.67 17.71 2 12 2Z" stroke="#09090B" stroke-width="2" stroke-linecap="round" stroke-linejoin="round"/>
</svg>
