<svg width="24" height="24" viewBox="0 0 24 24" fill="none" xmlns="http://www.w3.org/2000/svg">
<path d="M2 2L22 22M8.3501 2.69002C10.1607 1.98284 12.1382 1.8187 14.0406 2.21766C15.9431 2.61663 17.688 3.5614 19.062 4.93643C20.4359 6.31145 21.3793 8.0571 21.7768 9.95985C22.1743 11.8626 22.0087 13.8399 21.3001 15.65M19.0799 19.08C18.1502 20.0097 17.0464 20.7473 15.8316 21.2504C14.6168 21.7536 13.3148 22.0126 11.9999 22.0126C10.6851 22.0126 9.38306 21.7536 8.16827 21.2504C6.95348 20.7473 5.8497 20.0097 4.91994 19.08C3.99018 18.1502 3.25265 17.0464 2.74947 15.8317C2.24629 14.6169 1.9873 13.3149 1.9873 12C1.9873 10.6851 2.24629 9.3831 2.74947 8.16831C3.25265 6.95353 3.99018 5.84974 4.91994 4.91998" stroke="#09090B" stroke-width="2" stroke-linecap="round" stroke-linejoin="round"/>
</svg>
