<svg width="24" height="24" viewBox="0 0 24 24" fill="none" xmlns="http://www.w3.org/2000/svg">
<g clip-path="url(#clip0_206_10664)">
<path d="M10.1001 2.17999C11.355 1.93537 12.6452 1.93537 13.9001 2.17999M17.6001 3.71002C18.6624 4.42828 19.5758 5.34509 20.2901 6.41002M21.8198 10.1C22.0644 11.3548 22.0644 12.6451 21.8198 13.9M20.2898 17.6C19.5716 18.6622 18.6548 19.5757 17.5898 20.29M13.9001 21.82C12.6452 22.0644 11.355 22.0644 10.1001 21.82M6.39996 20.29C5.33769 19.5718 4.42427 18.655 3.70996 17.59M2.18005 13.9C1.93543 12.6451 1.93543 11.3548 2.18005 10.1M3.70996 6.40002C4.42822 5.33775 5.34503 4.42433 6.40996 3.71002" stroke="#09090B" stroke-width="2" stroke-linecap="round" stroke-linejoin="round"/>
</g>
<defs>
<clipPath id="clip0_206_10664">
<rect width="24" height="24" fill="white"/>
</clipPath>
</defs>
</svg>
