<svg width="24" height="24" viewBox="0 0 24 24" fill="none" xmlns="http://www.w3.org/2000/svg">
<path d="M19.6502 15.66C18.1364 17.0957 16.1217 17.8832 14.0356 17.8547C11.9495 17.8261 9.95709 16.9838 8.48317 15.5073C7.00925 14.0307 6.17044 12.0368 6.14559 9.9507C6.12074 7.86456 6.91182 5.85125 8.35015 4.34003M14 10L8.5 15.5M14 10L13.9999 17.85M14 10H6.1499M21.6602 17.67C21.7693 17.774 21.8555 17.8997 21.9131 18.039C21.9707 18.1783 21.9986 18.3282 21.9948 18.4789C21.991 18.6296 21.9558 18.7778 21.8912 18.9141C21.8267 19.0503 21.7344 19.1716 21.6202 19.27C19.3176 21.1624 16.3932 22.1301 13.4164 21.9849C10.4395 21.8397 7.62317 20.5919 5.51571 18.4845C3.40824 16.377 2.16044 13.5607 2.01524 10.5838C1.87003 7.60695 2.83781 4.68257 4.73017 2.38C4.83033 2.26686 4.95273 2.17558 5.08973 2.11183C5.22674 2.04808 5.3754 2.01325 5.52646 2.00949C5.67752 2.00574 5.82773 2.03315 5.96773 2.09002C6.10773 2.14688 6.23451 2.23198 6.34017 2.34L21.6602 17.67Z" stroke="#09090B" stroke-width="2" stroke-linecap="round" stroke-linejoin="round"/>
</svg>
