<svg width="24" height="24" viewBox="0 0 24 24" fill="none" xmlns="http://www.w3.org/2000/svg">
<path d="M4 11V19C4 19.5304 4.21071 20.0391 4.58579 20.4142C4.96086 20.7893 5.46957 21 6 21H18C18.5304 21 19.0391 20.7893 19.4142 20.4142C19.7893 20.0391 20 19.5304 20 19V11H4ZM4 11L3.12018 8.13001C3.04303 7.87854 3.01625 7.61432 3.04136 7.35248C3.06648 7.09064 3.143 6.83632 3.26654 6.6041C3.39009 6.37188 3.55823 6.16631 3.76133 5.99916C3.96444 5.83201 4.19852 5.70657 4.45018 5.63001L15.9302 2.13001C16.4367 1.9738 16.9846 2.02508 17.4534 2.27259C17.9221 2.52011 18.2735 2.9436 18.4302 3.45001L19.3002 6.32001L4.00018 11.01L4 11ZM6.6001 4.98999L9.9801 9.18999M11.8599 3.38L15.2399 7.58" stroke="#09090B" stroke-width="2" stroke-linecap="round" stroke-linejoin="round"/>
</svg>
