<svg width="24" height="24" viewBox="0 0 24 24" fill="none" xmlns="http://www.w3.org/2000/svg">
<path d="M2 2L22 22M5.78204 5.78198C4.38831 6.50262 3.27709 7.6706 2.62673 9.09847C1.97638 10.5264 1.82459 12.1313 2.19573 13.6558C2.56688 15.1803 3.43943 16.5359 4.67336 17.505C5.90728 18.4742 7.43103 19.0006 9.00004 19H17.5C17.9428 19.0003 18.3832 18.9353 18.807 18.807M21.532 16.5C21.8724 15.8139 22.0321 15.0522 21.9958 14.2871C21.9596 13.522 21.7287 12.7788 21.3249 12.1279C20.9212 11.477 20.3579 10.94 19.6886 10.5676C19.0193 10.1952 18.2659 9.99986 17.5 10H15.71C15.3275 8.71928 14.5867 7.57466 13.575 6.70114C12.5632 5.82763 11.3228 5.26167 10 5.07001" stroke="#09090B" stroke-width="2" stroke-linecap="round" stroke-linejoin="round"/>
</svg>
