<svg width="24" height="24" viewBox="0 0 24 24" fill="none" xmlns="http://www.w3.org/2000/svg">
<path d="M4.19985 15.1C3.41907 14.3631 2.81825 13.4565 2.44385 12.4503C2.06945 11.4441 1.9315 10.3653 2.04069 9.29725C2.14988 8.22922 2.50327 7.20061 3.07352 6.29099C3.64378 5.38137 4.41563 4.6151 5.32936 4.05146C6.2431 3.48782 7.27424 3.1419 8.34303 3.04047C9.41182 2.93904 10.4896 3.0848 11.4931 3.46649C12.4965 3.84818 13.3987 4.45557 14.1299 5.24168C14.8611 6.02779 15.4017 6.97155 15.7099 7.99997H17.4999C18.4537 8.01283 19.3788 8.32849 20.1416 8.90138C20.9044 9.47427 21.4654 10.2747 21.7436 11.1872C22.0218 12.0997 22.0028 13.077 21.6894 13.978C21.376 14.879 20.7843 15.6571 19.9999 16.2M15.6998 18.4L14.7998 18.1M9.1998 15.9L8.2998 15.6M10.6001 20.7L10.9001 19.8M13.1001 14.2L13.4001 13.3M13.6002 20.7L13.2002 19.7M10.7999 14.3L10.3999 13.3M8.2998 18.6L9.2998 18.2M14.7002 15.8L15.7002 15.4M15 17C15 18.6569 13.6569 20 12 20C10.3431 20 9 18.6569 9 17C9 15.3431 10.3431 14 12 14C13.6569 14 15 15.3431 15 17Z" stroke="#09090B" stroke-width="2" stroke-linecap="round" stroke-linejoin="round"/>
</svg>
