<svg width="24" height="24" viewBox="0 0 24 24" fill="none" xmlns="http://www.w3.org/2000/svg">
<path d="M8.00001 8.00003C6.67001 6.64003 6.73001 4.85003 7.77001 3.78003C8.02076 3.52907 8.31851 3.32998 8.64624 3.19415C8.97397 3.05832 9.32525 2.9884 9.68001 2.9884C10.0348 2.9884 10.3861 3.05832 10.7138 3.19415C11.0415 3.32998 11.3393 3.52907 11.59 3.78003L11.99 4.18003L12.39 3.80003C12.896 3.29624 13.581 3.01339 14.295 3.01339C15.009 3.01339 15.694 3.29624 16.2 3.80003C17.27 4.85003 17.33 6.64003 16 8.00003M8.00001 8.00003L12 12L16 8.00003M8.00001 8.00003C6.64001 6.67003 4.8499 6.72997 3.7999 7.79997C3.29611 8.30598 3.01327 8.99094 3.01327 9.70497C3.01327 10.419 3.29611 11.104 3.7999 11.61L4.1799 12.01L3.7799 12.41C3.52894 12.6607 3.32986 12.9585 3.19403 13.2862C3.05819 13.6139 2.98828 13.9652 2.98828 14.32C2.98828 14.6747 3.05819 15.026 3.19403 15.3537C3.32986 15.6815 3.52894 15.9792 3.7799 16.23C4.8499 17.27 6.6399 17.33 7.9999 16M16 8.00003C17.36 6.67003 19.15 6.73001 20.22 7.77001C20.471 8.02076 20.67 8.31851 20.8059 8.64624C20.9417 8.97397 21.0116 9.32525 21.0116 9.68001C21.0116 10.0348 20.9417 10.3861 20.8059 10.7138C20.67 11.0415 20.471 11.3393 20.22 11.59L19.82 11.99L20.2 12.39C20.7038 12.896 20.9866 13.581 20.9866 14.295C20.9866 15.009 20.7038 15.694 20.2 16.2C19.15 17.27 17.36 17.33 16 16M7 17L2 22M7.79981 20.2C8.30581 20.7038 8.99077 20.9866 9.70481 20.9866C10.4188 20.9866 11.1038 20.7038 11.6098 20.2L12.0098 19.82L12.4098 20.22C12.6606 20.471 12.9583 20.6701 13.286 20.8059C13.6138 20.9417 13.965 21.0116 14.3198 21.0116C14.6746 21.0116 15.0259 20.9417 15.3536 20.8059C15.6813 20.6701 15.9791 20.471 16.2298 20.22C17.2898 19.16 17.3498 17.37 16.0198 16.01L12.0198 12.01L8.01981 16.01C6.68981 17.37 6.74981 19.16 7.81981 20.21L7.79981 20.2Z" stroke="#09090B" stroke-width="2" stroke-linecap="round" stroke-linejoin="round"/>
</svg>
