<svg width="24" height="24" viewBox="0 0 24 24" fill="none" xmlns="http://www.w3.org/2000/svg">
<path d="M14.9998 9.354C14.4623 8.7447 13.7521 8.31351 12.9636 8.11779C12.175 7.92208 11.3456 7.97112 10.5856 8.2584C9.82566 8.54568 9.17119 9.05757 8.7093 9.72596C8.24741 10.3943 8 11.1875 8 12C8 12.8125 8.24741 13.6057 8.7093 14.274C9.17119 14.9424 9.82566 15.4543 10.5856 15.7416C11.3456 16.0289 12.175 16.0779 12.9636 15.8822C13.7521 15.6865 14.4623 15.2553 14.9998 14.646M22 12C22 17.5228 17.5228 22 12 22C6.47715 22 2 17.5228 2 12C2 6.47715 6.47715 2 12 2C17.5228 2 22 6.47715 22 12Z" stroke="#09090B" stroke-width="2" stroke-linecap="round" stroke-linejoin="round"/>
</svg>
