<svg width="24" height="24" viewBox="0 0 24 24" fill="none" xmlns="http://www.w3.org/2000/svg">
<path d="M10.2 3.20001C5.5 4.00001 2 8.10001 2 13C2 13.5304 2.21071 14.0392 2.58579 14.4142C2.96086 14.7893 3.46957 15 4 15C4.53043 15 5.03914 14.7893 5.41421 14.4142C5.78929 14.0392 6 13.5304 6 13V12C6 11.4696 6.21071 10.9609 6.58579 10.5858C6.96086 10.2107 7.46957 10 8 10C8.53043 10 9.03914 10.2107 9.41421 10.5858C9.78929 10.9609 10 11.4696 10 12V16C10 16.5304 10.2107 17.0392 10.5858 17.4142C10.9609 17.7893 11.4696 18 12 18C12.5304 18 13.0391 17.7893 13.4142 17.4142C13.7893 17.0392 14 16.5304 14 16V12C14 11.4696 14.2107 10.9609 14.5858 10.5858C14.9609 10.2107 15.4696 10 16 10C16.5304 10 17.0391 10.2107 17.4142 10.5858C17.7893 10.9609 18 11.4696 18 12V13C18 13.5304 18.2107 14.0392 18.5858 14.4142C18.9609 14.7893 19.4696 15 20 15C20.5304 15 21.0391 14.7893 21.4142 14.4142C21.7893 14.0392 22 13.5304 22 13C22 8.10001 18.5 4.00001 13.8 3.20001M3.2002 14.8C3.6319 16.8135 4.74103 18.618 6.34251 19.9125C7.94399 21.207 9.94095 21.9132 12.0002 21.9132C14.0594 21.9132 16.0564 21.207 17.6579 19.9125C19.2594 18.618 20.3685 16.8135 20.8002 14.8M14 4C14 5.10457 13.1046 6 12 6C10.8954 6 10 5.10457 10 4C10 2.89543 10.8954 2 12 2C13.1046 2 14 2.89543 14 4Z" stroke="#09090B" stroke-width="2" stroke-linecap="round" stroke-linejoin="round"/>
</svg>
