<svg width="24" height="24" viewBox="0 0 24 24" fill="none" xmlns="http://www.w3.org/2000/svg">
<path d="M2.69997 10.3C2.47592 10.5238 2.29818 10.7896 2.17691 11.0822C2.05564 11.3747 1.99323 11.6883 1.99323 12.005C1.99323 12.3217 2.05564 12.6353 2.17691 12.9278C2.29818 13.2204 2.47592 13.4862 2.69997 13.71L10.29 21.3C10.5138 21.5241 10.7796 21.7018 11.0721 21.8231C11.3647 21.9443 11.6783 22.0068 11.995 22.0068C12.3117 22.0068 12.6253 21.9443 12.9178 21.8231C13.2104 21.7018 13.4761 21.5241 13.7 21.3L21.29 13.71C21.514 13.4862 21.6918 13.2204 21.813 12.9278C21.9343 12.6353 21.9967 12.3217 21.9967 12.005C21.9967 11.6883 21.9343 11.3747 21.813 11.0822C21.6918 10.7896 21.514 10.5238 21.29 10.3L13.7 2.71001C13.4761 2.48596 13.2104 2.30822 12.9178 2.18695C12.6253 2.06568 12.3117 2.00327 11.995 2.00327C11.6783 2.00327 11.3647 2.06568 11.0721 2.18695C10.7796 2.30822 10.5138 2.48596 10.29 2.71001L2.69997 10.3Z" stroke="#09090B" stroke-width="2" stroke-linecap="round" stroke-linejoin="round"/>
</svg>
