<svg width="24" height="24" viewBox="0 0 24 24" fill="none" xmlns="http://www.w3.org/2000/svg">
<path d="M9.99998 5.17199C9.99998 3.78199 8.42298 2.67899 6.49998 2.99999C3.67698 3.46999 2.38698 9.00599 2.49998 9.99999C2.57998 10.703 4.22498 11.722 6.15598 11C7.41698 10.528 8.11598 9.54999 8.49998 8.49999M14.2671 5.17199C14.2671 3.78199 15.8441 2.67899 17.7671 2.99999C20.5901 3.46999 21.8801 9.00599 21.7671 9.99999C21.6871 10.703 20.0421 11.722 18.1111 11C16.8501 10.528 16.2561 9.54999 15.8721 8.49999M8 14V14.5M16 14V14.5M4.42001 11.247C4.14014 12.3277 3.999 13.4397 4.00001 14.556C4.00001 18.728 7.58201 21 12 21C16.418 21 20 18.728 20 14.556C20 13.495 19.838 12.356 19.507 11.247M10.264 5.16503C10.8358 5.05269 11.4173 4.99742 12 5.00003C12.78 5.00003 13.5 5.10803 14.161 5.30603M11.25 16.25H12.75L12 17L11.25 16.25Z" stroke="#09090B" stroke-width="2" stroke-linecap="round" stroke-linejoin="round"/>
</svg>
