<svg width="24" height="24" viewBox="0 0 24 24" fill="none" xmlns="http://www.w3.org/2000/svg">
<path d="M11.2502 15.6L9.09019 17.76C9.29724 18.0728 9.43126 18.4282 9.48231 18.7998C9.53336 19.1714 9.50013 19.5497 9.38509 19.9067C9.27005 20.2638 9.07614 20.5903 8.81774 20.8622C8.55934 21.1341 8.24307 21.3444 7.89236 21.4774C7.54165 21.6105 7.1655 21.6629 6.79177 21.6308C6.41804 21.5988 6.05633 21.483 5.73342 21.2921C5.41052 21.1013 5.1347 20.8402 4.92642 20.5282C4.71813 20.2163 4.58271 19.8614 4.53019 19.49C4.06939 19.4268 3.6355 19.2359 3.27768 18.9387C2.91986 18.6416 2.65241 18.2502 2.50564 17.8088C2.35887 17.3675 2.33865 16.8939 2.44727 16.4416C2.55588 15.9894 2.789 15.5766 3.12019 15.25C3.52699 14.8438 4.06136 14.5901 4.63331 14.5319C5.20525 14.4736 5.77981 14.6142 6.26019 14.93L8.42019 12.77M15.4499 15.4C13.3199 16.05 11.1499 15.72 9.74986 14.3C7.45986 12.03 7.98986 7.80002 10.9199 4.88002C13.8499 1.95002 18.0699 1.42002 20.3499 3.70002C21.7599 5.11002 22.0899 7.27002 21.4499 9.41002C20.0499 8.90002 18.1899 9.39002 16.8099 10.77C15.4299 12.15 14.9399 14 15.4499 15.4Z" stroke="#09090B" stroke-width="2" stroke-linecap="round" stroke-linejoin="round"/>
</svg>
