<svg width="24" height="24" viewBox="0 0 24 24" fill="none" xmlns="http://www.w3.org/2000/svg">
<path d="M14 2V8H20M20 17L18.91 15.91C18.5353 15.5375 18.0284 15.3284 17.5 15.3284C16.9716 15.3284 16.4647 15.5375 16.09 15.91L10 22M14.5 2H6C5.46957 2 4.96086 2.21071 4.58579 2.58579C4.21071 2.96086 4 3.46957 4 4V20C4 20.5304 4.21071 21.0391 4.58579 21.4142C4.96086 21.7893 5.46957 22 6 22H18C18.5304 22 19.0391 21.7893 19.4142 21.4142C19.7893 21.0391 20 20.5304 20 20V7.5L14.5 2ZM12 13C12 14.1046 11.1046 15 10 15C8.89543 15 8 14.1046 8 13C8 11.8954 8.89543 11 10 11C11.1046 11 12 11.8954 12 13Z" stroke="#09090B" stroke-width="2" stroke-linecap="round" stroke-linejoin="round"/>
</svg>
