<svg width="24" height="24" viewBox="0 0 24 24" fill="none" xmlns="http://www.w3.org/2000/svg">
<path d="M17.5 22H18C18.5 22 19 21.8 19.4 21.4C19.8 21 20 20.5 20 20V7.5L14.5 2H6C5.5 2 5 2.2 4.6 2.6C4.2 3 4 3.5 4 4V7M14 2V8H20M14 19C14 18.4696 13.7893 17.9609 13.4142 17.5858C13.0391 17.2107 12.5304 17 12 17C11.4696 17 10.9609 17.2107 10.5858 17.5858C10.2107 17.9609 10 18.4696 10 19V20C10 20.5304 10.2107 21.0391 10.5858 21.4142C10.9609 21.7893 11.4696 22 12 22C12.5304 22 13.0391 21.7893 13.4142 21.4142C13.7893 21.0391 14 20.5304 14 20V19ZM14 19V16C14 14.4087 13.3679 12.8826 12.2426 11.7574C11.1174 10.6321 9.5913 10 8 10C6.4087 10 4.88258 10.6321 3.75736 11.7574C2.63214 12.8826 2 14.4087 2 16V19M2 19C2 18.4696 2.21071 17.9609 2.58579 17.5858C2.96086 17.2107 3.46957 17 4 17C4.53043 17 5.03914 17.2107 5.41421 17.5858C5.78929 17.9609 6 18.4696 6 19V20C6 20.5304 5.78929 21.0391 5.41421 21.4142C5.03914 21.7893 4.53043 22 4 22C3.46957 22 2.96086 21.7893 2.58579 21.4142C2.21071 21.0391 2 20.5304 2 20V19Z" stroke="#09090B" stroke-width="2" stroke-linecap="round" stroke-linejoin="round"/>
</svg>
