<svg width="24" height="24" viewBox="0 0 24 24" fill="none" xmlns="http://www.w3.org/2000/svg">
<path d="M4 8V4C4 3.46957 4.21071 2.96086 4.58579 2.58579C4.96086 2.21071 5.46957 2 6 2H14.5L20 7.5V20C20 20.5304 19.7893 21.0391 19.4142 21.4142C19.0391 21.7893 18.5304 22 18 22H4M14 2V8H20M10 15.5L14 18V12L10 14.5M3 12H9C9.55228 12 10 12.4477 10 13V17C10 17.5523 9.55228 18 9 18H3C2.44772 18 2 17.5523 2 17V13C2 12.4477 2.44772 12 3 12Z" stroke="#09090B" stroke-width="2" stroke-linecap="round" stroke-linejoin="round"/>
</svg>
