<svg width="24" height="24" viewBox="0 0 24 24" fill="none" xmlns="http://www.w3.org/2000/svg">
<path d="M9.6998 14.4L8.7998 14.1M3.1998 11.9L2.2998 11.6M4.6001 16.7L4.9001 15.8M7.6002 16.7L7.2002 15.7M4.7999 10.3L4.3999 9.29999M2.2998 14.6L3.2998 14.2M8.7002 11.8L9.7002 11.4M7.4001 9.29999L7.1001 10.2M14 2V8H20M4 5.5V4C4 3.46957 4.21071 2.96086 4.58579 2.58579C4.96086 2.21071 5.46957 2 6 2H14.5L20 7.5V20C20 20.5304 19.7893 21.0391 19.4142 21.4142C19.0391 21.7893 18.5304 22 18 22H6C5.54582 22.0144 5.10028 21.8736 4.73675 21.601C4.37322 21.3284 4.11338 20.94 4 20.5M9 13C9 14.6569 7.65685 16 6 16C4.34315 16 3 14.6569 3 13C3 11.3431 4.34315 10 6 10C7.65685 10 9 11.3431 9 13Z" stroke="#09090B" stroke-width="2" stroke-linecap="round" stroke-linejoin="round"/>
</svg>
