<svg width="24" height="24" viewBox="0 0 24 24" fill="none" xmlns="http://www.w3.org/2000/svg">
<path d="M16 22H18C18.5304 22 19.0391 21.7893 19.4142 21.4142C19.7893 21.0391 20 20.5304 20 20V7.5L14.5 2H6C5.46957 2 4.96086 2.21071 4.58579 2.58579C4.21071 2.96086 4 3.46957 4 4V7M14 2V8H20M4.04022 11.71C3.44324 12.2357 2.95993 12.8777 2.61994 13.5969C2.27994 14.316 2.09044 15.0969 2.06304 15.8919C2.03564 16.6868 2.17092 17.479 2.46059 18.2198C2.75026 18.9606 3.18822 19.6344 3.74759 20.2C4.30696 20.7655 4.97597 21.2108 5.71357 21.5085C6.45117 21.8062 7.24182 21.9502 8.03702 21.9314C8.83223 21.9127 9.61523 21.7318 10.338 21.3996C11.0608 21.0675 11.7081 20.5912 12.2402 20M13.83 16C13.83 14.4538 13.2158 12.9709 12.1224 11.8776C11.0291 10.7842 9.54621 10.17 8 10.17V16H13.83Z" stroke="#09090B" stroke-width="2" stroke-linecap="round" stroke-linejoin="round"/>
</svg>
