<svg width="24" height="24" viewBox="0 0 24 24" fill="none" xmlns="http://www.w3.org/2000/svg">
<path d="M10.5 20H4C3.46957 20 2.96086 19.7893 2.58579 19.4142C2.21071 19.0391 2 18.5304 2 18V4.99997C2 4.46954 2.21071 3.96083 2.58579 3.58576C2.96086 3.21069 3.46957 2.99997 4 2.99997H7.9C8.23449 2.99669 8.56445 3.07736 8.8597 3.23459C9.15495 3.39183 9.40604 3.6206 9.59 3.89997L10.4 5.09997C10.5821 5.3765 10.83 5.60349 11.1215 5.76058C11.413 5.91766 11.7389 5.99992 12.07 5.99997H20C20.5304 5.99997 21.0391 6.21069 21.4142 6.58576C21.7893 6.96083 22 7.46954 22 7.99997V11.5M21.6998 19.4L20.7998 19.1M15.1998 16.9L14.2998 16.6M16.6001 21.7L16.9001 20.8M19.1001 15.2L19.4001 14.3M19.6002 21.7L19.2002 20.7M16.7999 15.3L16.3999 14.3M14.2998 19.6L15.2998 19.2M20.7002 16.8L21.7002 16.4M21 18C21 19.6569 19.6569 21 18 21C16.3431 21 15 19.6569 15 18C15 16.3431 16.3431 15 18 15C19.6569 15 21 16.3431 21 18Z" stroke="#09090B" stroke-width="2" stroke-linecap="round" stroke-linejoin="round"/>
</svg>
