<svg width="24" height="24" viewBox="0 0 24 24" fill="none" xmlns="http://www.w3.org/2000/svg">
<path d="M11 20H4C3.46957 20 2.96086 19.7893 2.58579 19.4142C2.21071 19.0391 2 18.5304 2 18V5C2 3.9 2.9 3 4 3H7.93C8.25941 3.0017 8.58331 3.08475 8.8729 3.24176C9.1625 3.39877 9.40882 3.62488 9.59 3.9L10.41 5.1C10.5912 5.37512 10.8375 5.60123 11.1271 5.75824C11.4167 5.91525 11.7406 5.9983 12.07 6H20C20.5304 6 21.0391 6.21071 21.4142 6.58579C21.7893 6.96086 22 7.46957 22 8V9.5M21.2902 13.7C20.9494 13.3609 20.5158 13.1305 20.044 13.038C19.5723 12.9454 19.0838 12.9948 18.6402 13.18C18.3402 13.3 18.0702 13.48 17.8402 13.71L17.5002 14.05L17.1502 13.71C16.8105 13.3692 16.3774 13.137 15.9056 13.0426C15.4339 12.9483 14.9447 12.9961 14.5002 13.18C14.2002 13.3 13.9402 13.48 13.7102 13.71C12.7602 14.65 12.7102 16.24 13.9102 17.45L17.5002 21L21.1002 17.45C22.3002 16.24 22.2402 14.65 21.2902 13.71V13.7Z" stroke="#09090B" stroke-width="2" stroke-linecap="round" stroke-linejoin="round"/>
</svg>
