<svg width="24" height="24" viewBox="0 0 24 24" fill="none" xmlns="http://www.w3.org/2000/svg">
<path d="M9 20H4C3.46957 20 2.96086 19.7893 2.58579 19.4142C2.21071 19.0391 2 18.5304 2 18V4.99997C2 4.46954 2.21071 3.96083 2.58579 3.58576C2.96086 3.21069 3.46957 2.99997 4 2.99997H7.9C8.23449 2.99669 8.56445 3.07736 8.8597 3.23459C9.15495 3.39183 9.40604 3.6206 9.59 3.89997L10.4 5.09997C10.5821 5.3765 10.83 5.60349 11.1215 5.76058C11.413 5.91766 11.7389 5.99992 12.07 5.99997H20C20.5304 5.99997 21.0391 6.21069 21.4142 6.58576C21.7893 6.96083 22 7.46954 22 7.99997V8.99997M12 10V14M12 14H16M12 14L13.5 12.5C14.4 11.6 15.7 11 17 11C18.3 11 19.6 11.6 20.5 12.5C20.9 12.9 21.3 13.5 21.5 14M22 22V18M22 18H18M22 18L20.5 19.5C19.6 20.4 18.4 21 17 21C15.6 21 14.4 20.4 13.5 19.5C13.1 19.1 12.7 18.5 12.5 18" stroke="#09090B" stroke-width="2" stroke-linecap="round" stroke-linejoin="round"/>
</svg>
