<svg width="24" height="24" viewBox="0 0 24 24" fill="none" xmlns="http://www.w3.org/2000/svg">
<path d="M15.5998 2.70002C13.461 1.8691 11.1015 1.79899 8.91713 2.50144C6.73275 3.20389 4.85639 4.63618 3.60282 6.55802C2.34925 8.47986 1.79472 10.7743 2.03226 13.0566C2.26981 15.3388 3.28498 17.4699 4.90746 19.0924C6.52995 20.7149 8.66105 21.73 10.9433 21.9676C13.2255 22.2051 15.52 21.6506 17.4418 20.397C19.3637 19.1434 20.7959 17.2671 21.4984 15.0827C22.2008 12.8983 22.1307 10.5388 21.2998 8.40002M13.3999 10.6L18.9999 5M14 12C14 13.1046 13.1046 14 12 14C10.8954 14 10 13.1046 10 12C10 10.8954 10.8954 10 12 10C13.1046 10 14 10.8954 14 12Z" stroke="#09090B" stroke-width="2" stroke-linecap="round" stroke-linejoin="round"/>
</svg>
