<svg width="24" height="24" viewBox="0 0 24 24" fill="none" xmlns="http://www.w3.org/2000/svg">
<path d="M21.9999 5V2L16.1099 7.89M19.6001 15.89C19.6001 17.5469 18.257 18.89 16.6001 18.89C14.9432 18.89 13.6001 17.5469 13.6001 15.89C13.6001 14.2332 14.9432 12.89 16.6001 12.89C18.257 12.89 19.6001 14.2332 19.6001 15.89ZM11.1099 7.40002C11.1099 9.05688 9.76672 10.4 8.10986 10.4C6.45301 10.4 5.10986 9.05688 5.10986 7.40002C5.10986 5.74317 6.45301 4.40002 8.10986 4.40002C9.76672 4.40002 11.1099 5.74317 11.1099 7.40002ZM15.3501 11.65C15.3501 13.3069 14.007 14.65 12.3501 14.65C10.6932 14.65 9.3501 13.3069 9.3501 11.65C9.3501 9.99317 10.6932 8.65002 12.3501 8.65002C14.007 8.65002 15.3501 9.99317 15.3501 11.65ZM16.9102 5.84998C16.9102 7.50683 15.567 8.84998 13.9102 8.84998C12.2533 8.84998 10.9102 7.50683 10.9102 5.84998C10.9102 4.19312 12.2533 2.84998 13.9102 2.84998C15.567 2.84998 16.9102 4.19312 16.9102 5.84998ZM21.1499 10.09C21.1499 11.7469 19.8068 13.09 18.1499 13.09C16.493 13.09 15.1499 11.7469 15.1499 10.09C15.1499 8.43317 16.493 7.09003 18.1499 7.09003C19.8068 7.09003 21.1499 8.43317 21.1499 10.09ZM9.56006 13.2C9.56006 14.8569 8.21691 16.2 6.56006 16.2C4.9032 16.2 3.56006 14.8569 3.56006 13.2C3.56006 11.5432 4.9032 10.2 6.56006 10.2C8.21691 10.2 9.56006 11.5432 9.56006 13.2ZM13.7998 17.44C13.7998 19.0969 12.4567 20.44 10.7998 20.44C9.14295 20.44 7.7998 19.0969 7.7998 17.44C7.7998 15.7831 9.14295 14.44 10.7998 14.44C12.4567 14.44 13.7998 15.7831 13.7998 17.44ZM8 19C8 20.6569 6.65685 22 5 22C3.34315 22 2 20.6569 2 19C2 17.3431 3.34315 16 5 16C6.65685 16 8 17.3431 8 19Z" stroke="#09090B" stroke-width="2" stroke-linecap="round" stroke-linejoin="round"/>
</svg>
