<svg width="24" height="24" viewBox="0 0 24 24" fill="none" xmlns="http://www.w3.org/2000/svg">
<path d="M14.9998 12L6.4998 20.5C5.6698 21.33 4.3298 21.33 3.4998 20.5C3.30266 20.3031 3.14626 20.0693 3.03956 19.8119C2.93285 19.5545 2.87793 19.2786 2.87793 19C2.87793 18.7214 2.93285 18.4455 3.03956 18.1881C3.14626 17.9307 3.30266 17.6969 3.4998 17.5L11.9998 9M17.6401 15L22.0001 10.64M20.91 11.7L19.66 10.45C19.06 9.85002 18.73 9.05002 18.73 8.20002V7.34002L16.01 4.60002C15.4936 4.08064 14.8798 3.66838 14.2036 3.38694C13.5275 3.1055 12.8024 2.96042 12.07 2.96002H9L9.92 3.78002C10.5735 4.35941 11.0967 5.07072 11.4552 5.86707C11.8137 6.66341 11.9994 7.52669 12 8.40002V9.96002L14 11.96H16.47L18.73 13.87" stroke="#09090B" stroke-width="2" stroke-linecap="round" stroke-linejoin="round"/>
</svg>
