<svg width="24" height="24" viewBox="0 0 24 24" fill="none" xmlns="http://www.w3.org/2000/svg">
<path d="M2 2L22 22M16.5 16.5L12 21L5 14C3.5 12.55 2 10.8 2 8.50002C2.00067 7.65964 2.1939 6.83059 2.56487 6.07652C2.93584 5.32245 3.47467 4.66342 4.14 4.15002M8.75977 3.1C9.90977 3.32 10.8898 3.88 11.9998 5C13.4998 3.5 14.7398 3 16.4998 3C17.9585 3 19.3574 3.57946 20.3889 4.61091C21.4203 5.64236 21.9998 7.04131 21.9998 8.5C21.9998 10.62 20.6998 12.28 19.3298 13.67" stroke="#09090B" stroke-width="2" stroke-linecap="round" stroke-linejoin="round"/>
</svg>
