<svg width="24" height="24" viewBox="0 0 24 24" fill="none" xmlns="http://www.w3.org/2000/svg">
<path d="M3 15L8.12 9.88002C8.68207 9.31725 9.44462 9.00072 10.24 9.00002H13C13.5304 9.00002 14.0391 9.21073 14.4142 9.5858C14.7893 9.96088 15 10.4696 15 11C15 11.5304 14.7893 12.0392 14.4142 12.4142C14.0391 12.7893 13.5304 13 13 13H10.5M14.5 12.32L18.67 7.43002C18.9922 7.07291 19.4389 6.85285 19.9184 6.81512C20.3979 6.77739 20.8736 6.92486 21.2476 7.22718C21.6217 7.5295 21.8657 7.96368 21.9293 8.4404C21.993 8.91711 21.8716 9.40011 21.59 9.79002L17.39 15.73C17.115 16.1196 16.7512 16.438 16.3286 16.6589C15.906 16.8797 15.4368 16.9967 14.96 17H9.83C9.56609 16.9998 9.30474 17.0518 9.06103 17.1531C8.81732 17.2544 8.59606 17.4028 8.41 17.59L7 19M2 14L8 20" stroke="#09090B" stroke-width="2" stroke-linecap="round" stroke-linejoin="round"/>
</svg>
