<svg width="24" height="24" viewBox="0 0 24 24" fill="none" xmlns="http://www.w3.org/2000/svg">
<path d="M17.4998 5.5C18.9998 7 20.4998 9 20.9998 11C19.6768 11.265 18.3538 11.39 16.8818 11.226M5.5 17.5C7 19 9 20.5 11 21C11.5 18.5 11.5 16 10 12.5M17.5 17.5C15 17.5 13.5 17.5 11.5 16.5M20 11.5C21 13 22 15 22 16M11.5 20C13 21 15 22 16 22C16.5 20.5 16 19 15.5 17.5M16.5 20.5C18.5 21.5 20 22 22 22L2 2M4.783 4.78201C1.073 8.49201 1 14.5 5 18C6 17 7 13.5 6.5 11.5C8 12.5 10.5 12.5 12 12M8.227 2.57001C11.578 1.33501 15.453 2.08901 18 5.00001C17.12 5.88001 14.3 6.76101 12.274 6.61801" stroke="#09090B" stroke-width="2" stroke-linecap="round" stroke-linejoin="round"/>
</svg>
