<svg width="24" height="24" viewBox="0 0 24 24" fill="none" xmlns="http://www.w3.org/2000/svg">
<path d="M8 21H16M12 18V21M5.14 11C4.9848 10.4777 4.95367 9.92639 5.0491 9.38996C5.14454 8.85353 5.36389 8.34679 5.6897 7.91008C6.01551 7.47337 6.43877 7.11876 6.9258 6.87448C7.41282 6.6302 7.95015 6.50299 8.495 6.50299C9.03985 6.50299 9.57718 6.6302 10.0642 6.87448C10.5512 7.11876 10.9745 7.47337 11.3003 7.91008C11.6261 8.34679 11.8455 8.85353 11.9409 9.38996C12.0363 9.92639 12.0052 10.4777 11.85 11M12.1401 11C11.9849 10.4777 11.9538 9.92639 12.0492 9.38996C12.1447 8.85353 12.364 8.34679 12.6898 7.91008C13.0156 7.47337 13.4389 7.11876 13.9259 6.87448C14.4129 6.6302 14.9503 6.50299 15.4951 6.50299C16.04 6.50299 16.5773 6.6302 17.0643 6.87448C17.5513 7.11876 17.9746 7.47337 18.3004 7.91008C18.6262 8.34679 18.8456 8.85353 18.941 9.38996C19.0364 9.92639 19.0053 10.4777 18.8501 11M15.5 6.5C15.5 6.04037 15.4095 5.58525 15.2336 5.16061C15.0577 4.73597 14.7999 4.35013 14.4749 4.02513C14.1499 3.70012 13.764 3.44231 13.3394 3.26642C12.9148 3.09053 12.4596 3 12 3C11.5404 3 11.0852 3.09053 10.6606 3.26642C10.236 3.44231 9.85013 3.70012 9.52513 4.02513C9.20012 4.35013 8.94231 4.73597 8.76642 5.16061C8.59053 5.58525 8.5 6.04037 8.5 6.5M12 17C17 17 20 14.31 20 11H4C4 14.31 7 17 12 17Z" stroke="#09090B" stroke-width="2" stroke-linecap="round" stroke-linejoin="round"/>
</svg>
