<svg width="24" height="24" viewBox="0 0 24 24" fill="none" xmlns="http://www.w3.org/2000/svg">
<path d="M2 2L22 22M10.4098 10.41C10.2239 10.5958 10.0033 10.7432 9.76056 10.8438C9.51777 10.9444 9.25755 10.9961 8.99476 10.9961C8.73197 10.9961 8.47176 10.9444 8.22897 10.8438C7.98619 10.7432 7.76558 10.5958 7.57976 10.41C7.39394 10.2242 7.24654 10.0036 7.14598 9.76081C7.04541 9.51802 6.99365 9.25781 6.99365 8.99502C6.99365 8.73223 7.04541 8.47201 7.14598 8.22923C7.24654 7.98644 7.39394 7.76584 7.57976 7.58002M13.5 13.5L6 21M18 12L21 15V5C21 4.46957 20.7893 3.96086 20.4142 3.58579C20.0391 3.21071 19.5304 3 19 3H9M3.59 3.59003C3.40358 3.77457 3.25548 3.99414 3.15423 4.23612C3.05298 4.4781 3.00056 4.73772 3 5.00003V19C3 19.5305 3.21071 20.0392 3.58579 20.4142C3.96086 20.7893 4.46957 21 5 21H19C19.55 21 20.052 20.78 20.41 20.41" stroke="#09090B" stroke-width="2" stroke-linecap="round" stroke-linejoin="round"/>
</svg>
