<svg width="24" height="24" viewBox="0 0 24 24" fill="none" xmlns="http://www.w3.org/2000/svg">
<path d="M2 18V21C2 21.6 2.4 22 3 22H7V19H10V16H12L13.4 14.6C14.7898 15.0841 16.3028 15.0823 17.6915 14.5947C19.0801 14.1072 20.2622 13.1628 21.0444 11.9161C21.8265 10.6694 22.1624 9.19415 21.9971 7.73172C21.8318 6.26928 21.1751 4.90623 20.1344 3.86555C19.0937 2.82486 17.7307 2.16816 16.2683 2.00287C14.8058 1.83757 13.3306 2.17347 12.0839 2.95562C10.8372 3.73776 9.89279 4.91985 9.40525 6.3085C8.91771 7.69714 8.91585 9.21014 9.4 10.6L2 18Z" stroke="#09090B" stroke-width="2" stroke-linecap="round" stroke-linejoin="round"/>
<path d="M16.5 8C16.7761 8 17 7.77614 17 7.5C17 7.22386 16.7761 7 16.5 7C16.2239 7 16 7.22386 16 7.5C16 7.77614 16.2239 8 16.5 8Z" stroke="#09090B" stroke-width="2" stroke-linecap="round" stroke-linejoin="round"/>
</svg>
