<svg width="24" height="24" viewBox="0 0 24 24" fill="none" xmlns="http://www.w3.org/2000/svg">
<path d="M2.00005 22C3.25005 21.013 4.27005 20.025 5.90005 19.8C7.31117 19.7996 8.66962 20.3359 9.70005 21.3C10.2348 21.6746 10.8531 21.9126 11.501 21.9932C12.1489 22.0739 12.8067 21.9947 13.4169 21.7626C14.0272 21.5305 14.5713 21.1526 15.0019 20.6618C15.4325 20.171 15.7364 19.5822 15.887 18.947C16.5359 19.0626 17.2041 18.9928 17.815 18.7454C18.4259 18.4981 18.9545 18.0833 19.34 17.5487C19.7255 17.0142 19.9523 16.3817 19.9942 15.724C20.0362 15.0663 19.8916 14.4101 19.577 13.831C20.1503 13.6458 20.6661 13.3157 21.0744 12.8728C21.4827 12.4299 21.7698 11.8891 21.9079 11.3027C22.046 10.7163 22.0303 10.1042 21.8625 9.52558C21.6947 8.94699 21.3804 8.42151 20.95 7.99998C21.2751 7.67496 21.5329 7.2891 21.7088 6.86444C21.8847 6.43978 21.9752 5.98463 21.9752 5.52498C21.9752 5.06533 21.8847 4.61018 21.7088 4.18552C21.5329 3.76086 21.2751 3.375 20.95 3.04998C20.625 2.72496 20.2392 2.46714 19.8145 2.29124C19.3898 2.11533 18.9347 2.0248 18.475 2.0248C17.5467 2.0248 16.6565 2.39357 16 3.04998C15.5785 2.61959 15.053 2.30528 14.4744 2.13748C13.8959 1.96968 13.2838 1.95406 12.6974 2.09213C12.111 2.23021 11.5701 2.5173 11.1272 2.92564C10.6843 3.33397 10.3542 3.84972 10.169 4.42298C9.5899 4.10846 8.93371 3.96385 8.27601 4.00578C7.6183 4.04772 6.9858 4.2745 6.45128 4.66003C5.91677 5.04555 5.50197 5.57416 5.2546 6.18502C5.00724 6.79588 4.93738 7.46417 5.05305 8.11298C4.4233 8.26634 3.84026 8.57044 3.3541 8.99909C2.86794 9.42774 2.49323 9.96811 2.26222 10.5737C2.0312 11.1793 1.9508 11.8319 2.02794 12.4755C2.10508 13.119 2.33745 13.7342 2.70505 14.268C3.49905 15.42 4.40905 16.712 4.20005 18.1C3.92605 19.743 3.01405 20.732 2.00005 22ZM2.00005 22L17 7" stroke="#09090B" stroke-width="2" stroke-linecap="round" stroke-linejoin="round"/>
</svg>
