<svg width="24" height="24" viewBox="0 0 24 24" fill="none" xmlns="http://www.w3.org/2000/svg">
<path d="M5.43 5.43005C4.50138 6.77335 4.0027 8.36703 4 10.0001C4 16.0001 12 22.0001 12 22.0001C13.8583 20.5367 15.5367 18.8584 17 17.0001M19.18 13.52C19.6978 12.4174 19.9773 11.218 20 10C20 7.87829 19.1571 5.84346 17.6568 4.34317C16.1565 2.84288 14.1217 2.00002 12 2.00002C10.779 1.99695 9.57394 2.27767 8.47998 2.82002M9.13016 9.13C9.04092 9.41127 8.99704 9.70494 9.00015 10C9.00015 10.7957 9.31623 11.5587 9.87883 12.1213C10.4414 12.6839 11.2045 13 12.0002 13C12.2952 13.0031 12.5889 12.9592 12.8702 12.87M14.9 9.24997C14.7673 8.7307 14.4978 8.25648 14.1197 7.87662C13.7416 7.49676 13.2686 7.22512 12.75 7.08997M2 2L22 22" stroke="#09090B" stroke-width="2" stroke-linecap="round" stroke-linejoin="round"/>
</svg>
