<svg width="24" height="24" viewBox="0 0 24 24" fill="none" xmlns="http://www.w3.org/2000/svg">
<path d="M11.9998 8L2.95982 17.06C2.67048 17.3147 2.43641 17.6259 2.27208 17.9746C2.10774 18.3232 2.01663 18.7019 2.00436 19.0871C1.99209 19.4724 2.05893 19.856 2.20074 20.2144C2.34256 20.5728 2.55634 20.8984 2.82889 21.1709C3.10144 21.4435 3.42697 21.6573 3.78537 21.7991C4.14378 21.9409 4.52745 22.0077 4.9127 21.9955C5.29794 21.9832 5.67659 21.8921 6.02524 21.7277C6.3739 21.5634 6.68516 21.3293 6.93982 21.04L15.9998 12M22 7C22 9.76142 19.7614 12 17 12C14.2386 12 12 9.76142 12 7C12 4.23858 14.2386 2 17 2C19.7614 2 22 4.23858 22 7Z" stroke="#09090B" stroke-width="2" stroke-linecap="round" stroke-linejoin="round"/>
</svg>
