<svg width="24" height="24" viewBox="0 0 24 24" fill="none" xmlns="http://www.w3.org/2000/svg">
<g clip-path="url(#clip0_206_10268)">
<path d="M10.3999 21.9C12.3227 22.2159 14.2958 21.9632 16.0769 21.173C17.858 20.3827 19.3694 19.0893 20.4254 17.4517C21.4814 15.8142 22.036 13.9037 22.021 11.9553C22.006 10.0068 21.422 8.10512 20.3409 6.48401M13.4998 2.09996C11.5849 1.80754 9.62631 2.07757 7.86198 2.87726C6.09765 3.67694 4.60356 4.97184 3.56126 6.60461C2.51896 8.23739 1.97332 10.1377 1.99063 12.0748C2.00795 14.0118 2.58749 15.9021 3.65882 17.516M15 12C15 13.6569 13.6569 15 12 15C10.3431 15 9 13.6569 9 12C9 10.3431 10.3431 9 12 9C13.6569 9 15 10.3431 15 12ZM21 5C21 6.10457 20.1046 7 19 7C17.8954 7 17 6.10457 17 5C17 3.89543 17.8954 3 19 3C20.1046 3 21 3.89543 21 5ZM7 19C7 20.1046 6.10457 21 5 21C3.89543 21 3 20.1046 3 19C3 17.8954 3.89543 17 5 17C6.10457 17 7 17.8954 7 19Z" stroke="#09090B" stroke-width="2" stroke-linecap="round" stroke-linejoin="round"/>
</g>
<defs>
<clipPath id="clip0_206_10268">
<rect width="24" height="24" fill="white"/>
</clipPath>
</defs>
</svg>
