<svg width="24" height="24" viewBox="0 0 24 24" fill="none" xmlns="http://www.w3.org/2000/svg">
<path d="M12 22V13M20 13.5V16.87C20.0004 17.2474 19.8971 17.6178 19.7013 17.9405C19.5056 18.2632 19.2249 18.5259 18.89 18.7L12.89 21.78C12.6151 21.9229 12.3098 21.9975 12 21.9975C11.6902 21.9975 11.3849 21.9229 11.11 21.78L5.11 18.7C4.77508 18.5259 4.49443 18.2632 4.29868 17.9405C4.10293 17.6178 3.99961 17.2474 4 16.87V13.5M20.9102 8.83998L8.56021 2.22998C8.2815 2.08201 7.97076 2.00464 7.65521 2.00464C7.33966 2.00464 7.02892 2.08201 6.75021 2.22998L3.10021 4.12998C2.7711 4.31033 2.49577 4.5748 2.30234 4.89639C2.1089 5.21798 2.0043 5.58515 1.99922 5.9604C1.99413 6.33564 2.08875 6.70551 2.2734 7.03222C2.45805 7.35893 2.72611 7.63078 3.05021 7.81998L15.2702 14.75C15.567 14.9146 15.9008 15.0009 16.2402 15.0009C16.5796 15.0009 16.9134 14.9146 17.2102 14.75L21.0002 12.51C21.3176 12.316 21.5784 12.0419 21.7564 11.7153C21.9344 11.3886 22.0233 11.0209 22.0142 10.649C22.005 10.2771 21.8982 9.91419 21.7045 9.59665C21.5107 9.27911 21.2368 9.01815 20.9102 8.83998ZM3.08994 8.83998L15.4399 2.22998C15.7186 2.08201 16.0294 2.00464 16.3449 2.00464C16.6605 2.00464 16.9712 2.08201 17.2499 2.22998L20.8999 4.12998C21.2317 4.30577 21.5108 4.56652 21.7088 4.88556C21.9067 5.2046 22.0164 5.57048 22.0265 5.9458C22.0367 6.32112 21.947 6.6924 21.7666 7.0217C21.5863 7.35099 21.3217 7.62647 20.9999 7.81998L8.72994 14.75C8.43314 14.9146 8.09933 15.0009 7.75994 15.0009C7.42055 15.0009 7.08674 14.9146 6.78994 14.75L2.99994 12.51C2.68252 12.316 2.42172 12.0419 2.24374 11.7153C2.06576 11.3886 1.97687 11.0209 1.98599 10.649C1.99511 10.2771 2.10192 9.91419 2.2957 9.59665C2.48947 9.27911 2.76339 9.01815 3.08994 8.83998Z" stroke="#09090B" stroke-width="2" stroke-linecap="round" stroke-linejoin="round"/>
</svg>
