<svg width="24" height="24" viewBox="0 0 24 24" fill="none" xmlns="http://www.w3.org/2000/svg">
<path d="M10 8H6L5 7L4 8H2C2 5.24 4.46 3 7.5 3C10.54 3 13 5.24 13 8C13.5 10 16 16.5 14 22H10C10.83 20 11.5 18 11 15.5M13 7.14002C14.0126 6.39137 15.2407 5.99135 16.5 6.00002C19.54 6.00002 22 8.24002 22 11H19L18 10L17 11H14M5.89009 9.70997C3.74009 11.86 3.59009 15.18 5.54009 17.14L9.78009 12.89L13.3101 9.35997C11.3601 7.39997 8.04009 7.55997 5.89009 9.70997Z" stroke="#09090B" stroke-width="2" stroke-linecap="round" stroke-linejoin="round"/>
</svg>
