<svg width="24" height="24" viewBox="0 0 24 24" fill="none" xmlns="http://www.w3.org/2000/svg">
<g clip-path="url(#clip0_206_10219)">
<path d="M15 5L19 9M12.9998 7.00005L8.6998 2.70005C8.24818 2.2506 7.63695 1.99829 6.9998 1.99829C6.36265 1.99829 5.75143 2.2506 5.2998 2.70005L2.6998 5.30005C2.25036 5.75167 1.99805 6.36289 1.99805 7.00005C1.99805 7.6372 2.25036 8.24842 2.6998 8.70005L6.9998 13M8 6L10 4M18 16L20 14M17 11L21.3 15.3C22.24 16.24 22.24 17.76 21.3 18.7L18.7 21.3C17.76 22.24 16.24 22.24 15.3 21.3L11 17M2 22L7.5 20.5L21.17 6.83001C21.7004 6.29958 21.9984 5.58016 21.9984 4.83001C21.9984 4.07987 21.7004 3.36045 21.17 2.83001C20.6396 2.29958 19.9201 2.00159 19.17 2.00159C18.4199 2.00159 17.7004 2.29958 17.17 2.83001L3.5 16.5L2 22Z" stroke="#09090B" stroke-width="2" stroke-linecap="round" stroke-linejoin="round"/>
</g>
<defs>
<clipPath id="clip0_206_10219">
<rect width="24" height="24" fill="white"/>
</clipPath>
</defs>
</svg>
