<svg width="24" height="24" viewBox="0 0 24 24" fill="none" xmlns="http://www.w3.org/2000/svg">
<path d="M2 22L3 21M3 21H6L15 12M3 21V18L12 9M14.9998 5.99996L18.3998 2.59996C18.7977 2.20213 19.3372 1.97864 19.8998 1.97864C20.4624 1.97864 21.002 2.20213 21.3998 2.59996C21.7977 2.99778 22.0212 3.53735 22.0212 4.09996C22.0212 4.66257 21.7977 5.20213 21.3998 5.59996L17.9998 8.99996L18.3998 9.39996C18.5968 9.59694 18.7531 9.83079 18.8597 10.0882C18.9663 10.3455 19.0212 10.6214 19.0212 10.9C19.0212 11.1785 18.9663 11.4544 18.8597 11.7118C18.7531 11.9691 18.5968 12.203 18.3998 12.4C18.2029 12.5969 17.969 12.7532 17.7116 12.8598C17.4543 12.9664 17.1784 13.0213 16.8998 13.0213C16.6213 13.0213 16.3454 12.9664 16.088 12.8598C15.8307 12.7532 15.5968 12.5969 15.3998 12.4L11.5998 8.59996C11.4029 8.40298 11.2466 8.16912 11.14 7.91175C11.0334 7.65438 10.9785 7.37853 10.9785 7.09996C10.9785 6.82138 11.0334 6.54553 11.14 6.28816C11.2466 6.03079 11.4029 5.79694 11.5998 5.59996C11.7968 5.40298 12.0307 5.24672 12.288 5.14011C12.5454 5.03351 12.8213 4.97864 13.0998 4.97864C13.3784 4.97864 13.6543 5.03351 13.9116 5.14011C14.169 5.24672 14.4029 5.40298 14.5998 5.59996L14.9998 5.99996Z" stroke="#09090B" stroke-width="2" stroke-linecap="round" stroke-linejoin="round"/>
</svg>
