<svg width="24" height="24" viewBox="0 0 24 24" fill="none" xmlns="http://www.w3.org/2000/svg">
<path d="M8 14C7.44287 13.2572 7.1036 12.3738 7.02021 11.449C6.93682 10.5242 7.1126 9.59446 7.52787 8.76393C7.94313 7.9334 8.58147 7.23492 9.37135 6.74675C10.1612 6.25857 11.0714 6 12 6C12.9286 6 13.8388 6.25857 14.6287 6.74675C15.4185 7.23492 16.0569 7.9334 16.4721 8.76393C16.8874 9.59446 17.0632 10.5242 16.9798 11.449C16.8964 12.3738 16.5571 13.2572 16 14M17 18.5C18.6054 17.4274 19.8234 15.8668 20.4739 14.0488C21.1244 12.2309 21.173 10.2519 20.6125 8.40424C20.052 6.55654 18.9122 4.93808 17.3613 3.78788C15.8105 2.63768 13.9308 2.01672 12 2.01672C10.0692 2.01672 8.18953 2.63768 6.63867 3.78788C5.08782 4.93808 3.94799 6.55654 3.38751 8.40424C2.82704 10.2519 2.87564 12.2309 3.52614 14.0488C4.17665 15.8668 5.39456 17.4274 7 18.5M13 11C13 11.5523 12.5523 12 12 12C11.4477 12 11 11.5523 11 11C11 10.4477 11.4477 10 12 10C12.5523 10 13 10.4477 13 11ZM11 17C11 16.7348 11.1054 16.4804 11.2929 16.2929C11.4804 16.1054 11.7348 16 12 16C12.2652 16 12.5196 16.1054 12.7071 16.2929C12.8946 16.4804 13 16.7348 13 17C13 17.5 12.66 20 12.5 21.5C12.5 21.6326 12.4473 21.7598 12.3536 21.8536C12.2598 21.9473 12.1326 22 12 22C11.8674 22 11.7402 21.9473 11.6464 21.8536C11.5527 21.7598 11.5 21.6326 11.5 21.5C11.34 20 11 17.5 11 17Z" stroke="#09090B" stroke-width="2" stroke-linecap="round" stroke-linejoin="round"/>
</svg>
