<svg width="24" height="24" viewBox="0 0 24 24" fill="none" xmlns="http://www.w3.org/2000/svg">
<path d="M18.3599 6.64001C19.4355 7.71617 20.2207 9.04745 20.6422 10.5094C21.0636 11.9714 21.1076 13.5164 20.7699 15M6.15997 6.16003C5.20457 6.96246 4.42645 7.95477 3.87501 9.07396C3.32357 10.1932 3.01085 11.4148 2.95672 12.6613C2.90258 13.9078 3.10821 15.1519 3.56055 16.3147C4.01289 17.4775 4.70205 18.5335 5.58428 19.4157C6.46652 20.298 7.52255 20.9871 8.68533 21.4395C9.84811 21.8918 11.0922 22.0974 12.3387 22.0433C13.5852 21.9891 14.8069 21.6764 15.926 21.125C17.0452 20.5736 18.0375 19.7954 18.84 18.84M12 2V6M2 2L22 22" stroke="#09090B" stroke-width="2" stroke-linecap="round" stroke-linejoin="round"/>
</svg>
