<svg width="24" height="24" viewBox="0 0 24 24" fill="none" xmlns="http://www.w3.org/2000/svg">
<g clip-path="url(#clip0_206_10170)">
<path d="M19.439 7.85C19.39 8.172 19.498 8.498 19.728 8.728L21.296 10.296C21.766 10.766 22.002 11.383 22.002 12C22.002 12.617 21.767 13.233 21.296 13.704L19.685 15.315C19.5767 15.4232 19.4446 15.5045 19.2993 15.5524C19.1539 15.6003 18.9994 15.6135 18.848 15.591C18.378 15.521 18.046 15.111 17.88 14.666C17.7343 14.2728 17.4922 13.9225 17.1757 13.6474C16.8593 13.3722 16.4787 13.1811 16.0691 13.0915C15.6595 13.0019 15.2339 13.0167 14.8315 13.1346C14.429 13.2525 14.0627 13.4697 13.7662 13.7663C13.4697 14.0628 13.2525 14.4291 13.1346 14.8315C13.0167 15.2339 13.0019 15.6595 13.0915 16.0691C13.1811 16.4787 13.3722 16.8593 13.6474 17.1757C13.9225 17.4922 14.2728 17.7343 14.666 17.88C15.112 18.046 15.521 18.377 15.591 18.848C15.6136 18.9994 15.6004 19.154 15.5525 19.2993C15.5046 19.4447 15.4232 19.5768 15.315 19.685L13.705 21.295C13.4814 21.5194 13.2156 21.6973 12.923 21.8187C12.6304 21.94 12.3167 22.0023 12 22.002C11.6834 22.0024 11.37 21.9402 11.0775 21.8191C10.7851 21.6979 10.5195 21.5202 10.296 21.296L8.72799 19.728C8.61465 19.6145 8.47628 19.5291 8.32397 19.4787C8.17166 19.4284 8.00966 19.4144 7.85099 19.438C7.35799 19.512 7.01099 19.942 6.83099 20.406C6.68011 20.7933 6.43507 21.1368 6.11803 21.4055C5.80099 21.6743 5.42196 21.8597 5.01521 21.9451C4.60847 22.0305 4.18686 22.0132 3.78851 21.8946C3.39016 21.7761 3.02765 21.5601 2.73377 21.2662C2.43988 20.9723 2.22391 20.6098 2.10537 20.2115C1.98683 19.8131 1.96948 19.3915 2.05488 18.9848C2.14027 18.578 2.32573 18.199 2.59446 17.882C2.86319 17.5649 3.20673 17.3199 3.59399 17.169C4.05799 16.989 4.48799 16.642 4.56099 16.149C4.5847 15.9904 4.57091 15.8285 4.52072 15.6762C4.47054 15.5238 4.38534 15.3854 4.27199 15.272L2.70399 13.704C2.47984 13.4805 2.30207 13.2149 2.18091 12.9225C2.05975 12.63 1.99758 12.3165 1.99799 12C1.99799 11.383 2.23399 10.766 2.70399 10.296L4.22999 8.77C4.46999 8.53 4.81099 8.417 5.14699 8.467C5.66199 8.544 6.02399 8.995 6.21999 9.477C6.37569 9.85875 6.62338 10.1961 6.941 10.4589C7.25863 10.7218 7.63633 10.902 8.04046 10.9835C8.4446 11.065 8.86263 11.0453 9.25731 10.9262C9.652 10.8071 10.0111 10.5922 10.3026 10.3006C10.5941 10.0091 10.809 9.65002 10.9282 9.25533C11.0473 8.86064 11.067 8.44261 10.9855 8.03848C10.904 7.63434 10.7237 7.25664 10.4609 6.93902C10.1981 6.62139 9.86074 6.3737 9.47899 6.218C8.99699 6.022 8.54599 5.66 8.46899 5.145C8.41899 4.809 8.53099 4.469 8.77199 4.228L10.297 2.703C10.5205 2.47915 10.7859 2.30164 11.0782 2.18066C11.3704 2.05967 11.6837 1.9976 12 1.998C12.617 1.998 13.234 2.234 13.704 2.704L15.272 4.272C15.502 4.502 15.828 4.61 16.149 4.562C16.642 4.488 16.989 4.058 17.169 3.594C17.3199 3.20674 17.5649 2.86321 17.8819 2.59447C18.199 2.32574 18.578 2.14029 18.9848 2.05489C19.3915 1.96949 19.8131 1.98685 20.2115 2.10538C20.6098 2.22392 20.9723 2.4399 21.2662 2.73378C21.5601 3.02766 21.7761 3.39017 21.8946 3.78852C22.0131 4.18687 22.0305 4.60849 21.9451 5.01523C21.8597 5.42197 21.6742 5.80101 21.4055 6.11805C21.1368 6.43509 20.7932 6.68013 20.406 6.831C19.942 7.011 19.512 7.357 19.439 7.85Z" stroke="#09090B" stroke-width="2" stroke-linecap="round" stroke-linejoin="round"/>
</g>
<defs>
<clipPath id="clip0_206_10170">
<rect width="24" height="24" fill="white"/>
</clipPath>
</defs>
</svg>
