<svg width="24" height="24" viewBox="0 0 24 24" fill="none" xmlns="http://www.w3.org/2000/svg">
<path d="M20 8.54V4C20 3.46957 19.7893 2.96086 19.4142 2.58579C19.0391 2.21071 18.5304 2 18 2C17.4696 2 16.9609 2.21071 16.5858 2.58579C16.2107 2.96086 16 3.46957 16 4V7M16 7L15.8 7.00004L12.4 3.60004C12.2161 3.41619 11.9979 3.27035 11.7577 3.17085C11.5175 3.07135 11.26 3.02014 11 3.02014C10.4749 3.02014 9.9713 3.22874 9.6 3.60004C9.2287 3.97134 9.0201 4.47494 9.0201 5.00004C9.0201 5.26004 9.07131 5.5175 9.17081 5.75772C9.27031 5.99793 9.41615 6.21619 9.6 6.40004L13.2 10H13C11.1435 10 9.36301 10.7375 8.05025 12.0503C6.7375 13.363 6 15.1435 6 17C6 18.0609 6.42143 19.0783 7.17157 19.8285C7.92172 20.5786 8.93913 21 10 21H18M16 7C19.3 7 22 9.70004 22 13V14C22 14.5305 21.7893 15.0392 21.4142 15.4143C21.0391 15.7893 20.5304 16 20 16H19C17.3 16 16 17.3 16 19M7.60994 12.5301C7.32875 12.0324 6.91123 11.6254 6.40653 11.3571C5.90184 11.0887 5.33098 10.9701 4.76116 11.0152C4.19133 11.0604 3.64626 11.2674 3.19011 11.6118C2.73396 11.9563 2.38572 12.4239 2.18638 12.9597C1.98704 13.4954 1.9449 14.0769 2.06492 14.6358C2.18495 15.1946 2.46213 15.7076 2.86385 16.1142C3.26558 16.5209 3.77511 16.8043 4.33247 16.9311C4.88984 17.0579 5.47183 17.0229 6.00994 16.8301M13 16C13.5795 15.9992 14.1467 16.1663 14.6333 16.481C15.1198 16.7958 15.5048 17.2446 15.7417 17.7735C15.9787 18.3023 16.0573 18.8884 15.9683 19.461C15.8793 20.0336 15.6263 20.5681 15.24 21M18 12H18.01" stroke="#09090B" stroke-width="2" stroke-linecap="round" stroke-linejoin="round"/>
</svg>
