<svg width="24" height="24" viewBox="0 0 24 24" fill="none" xmlns="http://www.w3.org/2000/svg">
<path d="M6.99023 3.34005C8.89767 2.23728 11.1159 1.79532 13.3004 2.08284C15.4848 2.37036 17.5131 3.37126 19.0702 4.93005L13.4102 10.5901M4 6H4.01M2.28986 9.61998C1.91496 11.147 1.90544 12.741 2.26209 14.2724C2.61874 15.8038 3.3315 17.2296 4.3425 18.4339C5.3535 19.6382 6.63425 20.5871 8.08076 21.2036C9.52728 21.8201 11.0988 22.0868 12.6677 21.982C14.2366 21.8773 15.7587 21.404 17.1104 20.6007C18.4621 19.7973 19.6054 18.6866 20.4473 17.3585C21.2892 16.0305 21.8061 14.5227 21.9559 12.9574C22.1058 11.3922 21.8845 9.81364 21.3099 8.34998M16.2398 7.76004C15.6643 7.18121 14.9768 6.72588 14.2192 6.42191C13.4617 6.11795 12.6501 5.97175 11.8342 5.99225C11.0182 6.01275 10.215 6.19953 9.47366 6.54115C8.73236 6.88277 8.06855 7.37205 7.52286 7.97906C6.97717 8.58607 6.56106 9.29803 6.30001 10.0714C6.03895 10.8448 5.93844 11.6633 6.00462 12.4768C6.07079 13.2903 6.30226 14.0818 6.68487 14.8028C7.06748 15.5238 7.59317 16.1592 8.22979 16.67M12 18H12.01M17.99 11.66C18.0444 12.6114 17.8714 13.5621 17.4854 14.4333C17.0993 15.3045 16.5113 16.0712 15.77 16.67M14 12C14 13.1046 13.1046 14 12 14C10.8954 14 10 13.1046 10 12C10 10.8954 10.8954 10 12 10C13.1046 10 14 10.8954 14 12Z" stroke="#09090B" stroke-width="2" stroke-linecap="round" stroke-linejoin="round"/>
</svg>
