<svg width="24" height="24" viewBox="0 0 24 24" fill="none" xmlns="http://www.w3.org/2000/svg">
<path d="M4.9001 16.1C1.0001 12.2 1.0001 5.80002 4.9001 1.90002M7.80015 4.69995C6.85145 5.68293 6.25766 6.95422 6.11277 8.31263C5.96787 9.67104 6.28014 11.039 7.00015 12.2M12 11C13.1046 11 14 10.1046 14 9C14 7.89543 13.1046 7 12 7C10.8954 7 10 7.89543 10 9C10 10.1046 10.8954 11 12 11ZM12 11L8 22M12 11L16 22M16.2002 4.80005C18.2002 6.80005 18.4602 9.91005 17.0002 12.27M19.1001 1.90002C20.0271 2.82516 20.7626 3.92405 21.2644 5.13378C21.7662 6.34351 22.0245 7.64034 22.0245 8.95002C22.0245 10.2597 21.7662 11.5565 21.2644 12.7663C20.7626 13.976 20.0271 15.0749 19.1001 16M9.5 18H14.5" stroke="#09090B" stroke-width="2" stroke-linecap="round" stroke-linejoin="round"/>
</svg>
