<svg width="24" height="24" viewBox="0 0 24 24" fill="none" xmlns="http://www.w3.org/2000/svg">
<path d="M7.50011 4.20001C7.20011 3.70001 6.60011 3.50001 6.20011 3.80001C3.90011 5.50001 2.30011 8.10001 2.00011 11C1.90011 11.5 2.40011 12 3.00011 12H8.00011C8.00011 10.5 8.80011 9.20001 10.0001 8.60001C8.90011 6.70001 8.00011 5.10001 7.50011 4.20001Z" stroke="#09090B" stroke-width="2" stroke-linecap="round" stroke-linejoin="round"/>
<path d="M21 12C21.6 12 22 11.6 22 11C21.7 8.09995 20.2 5.49995 17.9 3.89995C17.5 3.59995 16.8 3.69995 16.6 4.19995C16 5.09995 15.1 6.69995 14 8.49995C15.2 9.19995 16 10.5 16 12H21Z" stroke="#09090B" stroke-width="2" stroke-linecap="round" stroke-linejoin="round"/>
<path d="M7.49984 19.8C7.19984 20.3 7.39984 20.9 7.89984 21.1C10.4998 22.3 13.4998 22.3 16.0998 21.1C16.5998 20.9 16.7998 20.3 16.4998 19.8C15.9998 18.9 15.0998 17.3 13.9998 15.5C12.7998 16.2 11.1998 16.2 9.99984 15.5C8.89984 17.3 7.99984 18.9 7.49984 19.8Z" stroke="#09090B" stroke-width="2" stroke-linecap="round" stroke-linejoin="round"/>
</svg>
