<svg width="24" height="24" viewBox="0 0 24 24" fill="none" xmlns="http://www.w3.org/2000/svg">
<path d="M17 5C17 3.3 15.7 2 14 2C12.3 2 11 3.3 11 5C11 5.8 11.3 6.5 11.8 7H11C7.1 7 4 10.1 4 14C4 16.2 5.8 18 8 18M16.8 3.9C17.1 3.6 17.4 3.4 17.8 3.2C19.3 2.6 21.1 3.3 21.7 4.8C22.3 6.3 21.6 8.1 20.1 8.7L21.7 11.5C21.9 11.8 21.9 12.2 21.9 12.5C21.7 13.3 21 13.7 20.2 13.6C20.2 13.6 18.6 13.3 17.5 13H17C15.3 13 14 14.3 14 16M13.2 18C13.5841 17.5706 13.8365 17.0398 13.9269 16.4708C14.0174 15.9018 13.9421 15.3189 13.7101 14.7916C13.4781 14.2643 13.0991 13.8149 12.6185 13.4972C12.138 13.1795 11.5761 13.0069 11 13M13 22H4C3.46957 22 2.96086 21.7893 2.58579 21.4142C2.21071 21.0391 2 20.5304 2 20C2 19.4696 2.21071 18.9609 2.58579 18.5858C2.96086 18.2107 3.46957 18 4 18H16M16 9H16.01" stroke="#09090B" stroke-width="2" stroke-linecap="round" stroke-linejoin="round"/>
</svg>
