<svg width="24" height="24" viewBox="0 0 24 24" fill="none" xmlns="http://www.w3.org/2000/svg">
<path d="M9 15L12 12M17 13C17 11.4087 16.3679 9.88258 15.2426 8.75736C14.1174 7.63214 12.5913 7 11 7M21 13C21 10.3478 19.9464 7.8043 18.0711 5.92893C16.1957 4.05357 13.6522 3 11 3M4.00024 10C3.18469 11.3951 2.85438 13.0211 3.06097 14.6238C3.26755 16.2265 3.99938 17.7155 5.14204 18.8582C6.2847 20.0009 7.77378 20.7327 9.37648 20.9393C10.9792 21.1459 12.6052 20.8156 14.0002 20L4.00024 10Z" stroke="#09090B" stroke-width="2" stroke-linecap="round" stroke-linejoin="round"/>
</svg>
