<svg width="24" height="24" viewBox="0 0 24 24" fill="none" xmlns="http://www.w3.org/2000/svg">
<path d="M14 11C14 11.5304 13.7893 12.0391 13.4142 12.4142C13.0392 12.7893 12.5304 13 12 13C11.4696 13 10.9609 12.7893 10.5858 12.4142C10.2107 12.0391 10 11.5304 10 11C10 9.93914 10.4214 8.92172 11.1716 8.17158C11.9217 7.42143 12.9391 7 14 7C15.0609 7 16.0783 7.42143 16.8284 8.17158C17.5786 8.92172 18 9.93914 18 11C18 12.5913 17.3679 14.1174 16.2427 15.2426C15.1174 16.3679 13.5913 17 12 17C10.4087 17 8.88259 16.3679 7.75737 15.2426C6.63215 14.1174 6.00001 12.5913 6.00001 11C6.00001 8.87827 6.84287 6.84344 8.34316 5.34315C9.84345 3.84286 11.8783 3 14 3C16.1217 3 18.1566 3.84286 19.6569 5.34315C21.1572 6.84344 22 8.87827 22 11C22 13.6522 20.9464 16.1957 19.0711 18.0711C17.1957 19.9464 14.6522 21 12 21C9.34785 21 6.80431 19.9464 4.92894 18.0711C3.05358 16.1957 2.00001 13.6522 2.00001 11C1.99633 8.3936 2.84631 5.8577 4.42001 3.78C4.57324 3.55403 4.77111 3.36181 5.00144 3.21521C5.23177 3.0686 5.48967 2.97071 5.75927 2.92756C6.02887 2.88441 6.30444 2.89691 6.56902 2.9643C6.8336 3.03169 7.08158 3.15255 7.29769 3.31941C7.51379 3.48627 7.69344 3.69562 7.82557 3.93455C7.9577 4.17347 8.0395 4.43692 8.06595 4.70867C8.0924 4.98041 8.06293 5.25469 7.97936 5.51462C7.89579 5.77454 7.75988 6.0146 7.58001 6.22" stroke="#09090B" stroke-width="2" stroke-linecap="round" stroke-linejoin="round"/>
</svg>
