<svg width="24" height="24" viewBox="0 0 24 24" fill="none" xmlns="http://www.w3.org/2000/svg">
<path d="M20.38 3.46L16 2C16 3.06087 15.5786 4.07828 14.8284 4.82843C14.0783 5.57857 13.0609 6 12 6C10.9391 6 9.92171 5.57857 9.17157 4.82843C8.42142 4.07828 7.99999 3.06087 7.99999 2L3.61999 3.46C3.16738 3.61079 2.78357 3.91842 2.53785 4.32734C2.29213 4.73627 2.20067 5.21956 2.27999 5.69L2.85999 9.16C2.89807 9.39491 3.01867 9.60855 3.20013 9.76251C3.3816 9.91648 3.61202 10.0007 3.84999 10H5.99999V20C5.99999 21.1 6.89999 22 7.99999 22H16C16.5304 22 17.0391 21.7893 17.4142 21.4142C17.7893 21.0391 18 20.5304 18 20V10H20.15C20.388 10.0007 20.6184 9.91648 20.7999 9.76251C20.9813 9.60855 21.1019 9.39491 21.14 9.16L21.72 5.69C21.7993 5.21956 21.7079 4.73627 21.4621 4.32734C21.2164 3.91842 20.8326 3.61079 20.38 3.46Z" stroke="#09090B" stroke-width="2" stroke-linecap="round" stroke-linejoin="round"/>
</svg>
