<svg width="24" height="24" viewBox="0 0 24 24" fill="none" xmlns="http://www.w3.org/2000/svg">
<path d="M17 18V12C17 10.6739 16.4732 9.40215 15.5355 8.46447C14.5979 7.52678 13.3261 7 12 7C10.6739 7 9.40215 7.52678 8.46447 8.46447C7.52678 9.40215 7 10.6739 7 12V18M17 18H7M17 18C17.5304 18 18.0391 18.2107 18.4142 18.5858C18.7893 18.9609 19 19.4696 19 20V22H5V20C5 19.4696 5.21071 18.9609 5.58579 18.5858C5.96086 18.2107 6.46957 18 7 18M21 12H22M18.5 4.5L18 5M2 12H3M12 2V3M4.9292 4.92896L5.6362 5.63596M12 12V18" stroke="#09090B" stroke-width="2" stroke-linecap="round" stroke-linejoin="round"/>
</svg>
