<svg width="24" height="24" viewBox="0 0 24 24" fill="none" xmlns="http://www.w3.org/2000/svg">
<path d="M9 13C9.55228 13 10 12.5523 10 12C10 11.4477 9.55228 11 9 11C8.44772 11 8 11.4477 8 12C8 12.5523 8.44772 13 9 13Z" stroke="#09090B" stroke-width="2" stroke-linecap="round" stroke-linejoin="round"/>
<path d="M15 13C15.5523 13 16 12.5523 16 12C16 11.4477 15.5523 11 15 11C14.4477 11 14 11.4477 14 12C14 12.5523 14.4477 13 15 13Z" stroke="#09090B" stroke-width="2" stroke-linecap="round" stroke-linejoin="round"/>
<path d="M8 20V22H16V20" stroke="#09090B" stroke-width="2" stroke-linecap="round" stroke-linejoin="round"/>
<path d="M12.5 17L12 16L11.5 17H12.5Z" stroke="#09090B" stroke-width="2" stroke-linecap="round" stroke-linejoin="round"/>
<path d="M16 20C16.3767 19.9998 16.7457 19.8932 17.0644 19.6924C17.3832 19.4917 17.6388 19.2051 17.8018 18.8655C17.9648 18.5259 18.0286 18.1471 17.9858 17.7729C17.943 17.3986 17.7954 17.0441 17.56 16.75C18.706 15.6423 19.495 14.2175 19.8258 12.6584C20.1566 11.0993 20.0142 9.47693 19.4168 7.99931C18.8194 6.52169 17.7942 5.25619 16.4728 4.36509C15.1513 3.474 13.5938 2.99792 12 2.99792C10.4062 2.99792 8.84869 3.474 7.52725 4.36509C6.2058 5.25619 5.18065 6.52169 4.58324 7.99931C3.98584 9.47693 3.84341 11.0993 4.17423 12.6584C4.50505 14.2175 5.29403 15.6423 6.44 16.75C6.20457 17.0441 6.05697 17.3986 6.01419 17.7729C5.97141 18.1471 6.0352 18.5259 6.19821 18.8655C6.36121 19.2051 6.61681 19.4917 6.93558 19.6924C7.25434 19.8932 7.62331 19.9998 8 20" stroke="#09090B" stroke-width="2" stroke-linecap="round" stroke-linejoin="round"/>
</svg>
