<svg width="24" height="24" viewBox="0 0 24 24" fill="none" xmlns="http://www.w3.org/2000/svg">
<path d="M21.9999 11V12C21.9898 14.0183 21.3691 15.9863 20.2196 17.6453C19.0701 19.3043 17.4454 20.5766 15.5592 21.295C13.6731 22.0134 11.6137 22.1442 9.65175 21.6702C7.68984 21.1963 5.91727 20.1397 4.56707 18.6395C3.21686 17.1393 2.35223 15.2656 2.08684 13.2648C1.82144 11.2639 2.1677 9.22963 3.08011 7.42929C3.99251 5.62894 5.42835 4.14683 7.19885 3.17779C8.96935 2.20875 10.9917 1.79814 12.9999 1.99995M8 14C8 14 9.5 16 12 16C14.5 16 16 14 16 14M9 9H9.01M15 9H15.01M16 5H22M19 2V8" stroke="#09090B" stroke-width="2" stroke-linecap="round" stroke-linejoin="round"/>
</svg>
