<svg width="24" height="24" viewBox="0 0 24 24" fill="none" xmlns="http://www.w3.org/2000/svg">
<path d="M7 20H17M10 20C15.5 17.5 10.8 13.6 13 10M13 10C12.9541 8.58615 13.3374 7.19156 14.0998 6C14.9998 5 16.2998 4.1 18.9998 4C18.8998 6.3 18.2998 7.6 17.2998 8.6C16.2998 9.4 14.9 9.9 13 10ZM9.5 9.39997C10.6 10.2 11.3 11.6 11.8 13.1C9.8 13.5 8.3 13.5 7 12.8C5.8 12.2 4.7 10.9 4 8.59997C6.8 8.09997 8.4 8.59997 9.5 9.39997Z" stroke="#09090B" stroke-width="2" stroke-linecap="round" stroke-linejoin="round"/>
</svg>
