<svg width="24" height="24" viewBox="0 0 24 24" fill="none" xmlns="http://www.w3.org/2000/svg">
<path d="M4.8 2.30002C4.80356 2.36285 4.8268 2.42298 4.86641 2.47188C4.90603 2.52078 4.96002 2.55598 5.02075 2.57251C5.08148 2.58903 5.14586 2.58604 5.2048 2.56395C5.26373 2.54187 5.31422 2.50181 5.34913 2.44944C5.38404 2.39708 5.4016 2.33506 5.39932 2.27217C5.39704 2.20927 5.37504 2.14869 5.33643 2.09899C5.29782 2.04929 5.24456 2.01299 5.18418 1.99523C5.12381 1.97747 5.05937 1.97914 5 2.00002H4C3.46957 2.00002 2.96086 2.21073 2.58579 2.58581C2.21071 2.96088 2 3.46959 2 4.00002V9.00002C2 10.5913 2.63214 12.1174 3.75736 13.2427C4.88258 14.3679 6.4087 15 8 15M8 15C9.5913 15 11.1174 14.3679 12.2426 13.2427C13.3679 12.1174 14 10.5913 14 9.00002V4.00002C14 3.46959 13.7893 2.96088 13.4142 2.58581C13.0391 2.21073 12.5304 2.00002 12 2.00002H11C10.9803 2.01972 10.9647 2.0431 10.954 2.06884C10.9434 2.09458 10.9379 2.12216 10.9379 2.15002C10.9379 2.17788 10.9434 2.20546 10.954 2.2312C10.9647 2.25694 10.9803 2.28032 11 2.30002C11.0197 2.31972 11.0431 2.33534 11.0688 2.346C11.0946 2.35666 11.1221 2.36215 11.15 2.36215C11.1779 2.36215 11.2054 2.35666 11.2312 2.346C11.2569 2.33534 11.2803 2.31972 11.3 2.30002M8 15V16C8 17.5913 8.63214 19.1174 9.75736 20.2426C10.8826 21.3679 12.4087 22 14 22C15.5913 22 17.1174 21.3679 18.2426 20.2426C19.3679 19.1174 20 17.5913 20 16V12M20 12C21.1046 12 22 11.1046 22 10C22 8.89543 21.1046 8 20 8C18.8954 8 18 8.89543 18 10C18 11.1046 18.8954 12 20 12Z" stroke="#09090B" stroke-width="2" stroke-linecap="round" stroke-linejoin="round"/>
</svg>
