<svg width="24" height="24" viewBox="0 0 24 24" fill="none" xmlns="http://www.w3.org/2000/svg">
<path d="M3 4H12L13 11M4 11V4M8 10V4M18 5C17.4 5 17 5.4 17 6V11.6M10 11L21 11.9C21.6 11.9 21.9 12.4 21.8 13L21 18H20M20 18C20 19.1046 19.1046 20 18 20C16.8954 20 16 19.1046 16 18M20 18C20 16.8954 19.1046 16 18 16C16.8954 16 16 16.8954 16 18M16 18H11M7.5 15C7.5 15.2761 7.27614 15.5 7 15.5C6.72386 15.5 6.5 15.2761 6.5 15C6.5 14.7239 6.72386 14.5 7 14.5C7.27614 14.5 7.5 14.7239 7.5 15ZM12 15C12 17.7614 9.76142 20 7 20C4.23858 20 2 17.7614 2 15C2 12.2386 4.23858 10 7 10C9.76142 10 12 12.2386 12 15Z" stroke="#09090B" stroke-width="2" stroke-linecap="round" stroke-linejoin="round"/>
</svg>
