<svg width="24" height="24" viewBox="0 0 24 24" fill="none" xmlns="http://www.w3.org/2000/svg">
<path d="M9.2998 6.19995C10.0819 6.77656 11.0281 7.08764 11.9998 7.08764C12.9715 7.08764 13.9177 6.77656 14.6998 6.19995M7.8999 10.7C8.7999 11.5 10.2999 12 11.9999 12C13.6999 12 15.1999 11.5 16.0999 10.7M7.5 12.2L2.8 14.9C2.3 15.2 2 15.6 2 16C2 16.4 2.3 16.8 2.8 17.1L10.4 21.6C11.3 22.1 12.5 22.1 13.4 21.6L21 17.1C21.7 16.8 22 16.4 22 16C22 15.6 21.7 15.2 21.2 14.9L16.5 12.1M13.9 3.49996C13.833 3.05121 13.61 2.64043 13.2702 2.33974C12.9304 2.03906 12.4955 1.86771 12.042 1.85577C11.5884 1.84383 11.1451 1.99208 10.79 2.27448C10.4348 2.55687 10.1905 2.95536 10.1 3.39996L7.1 13.4C7 13.6 7 13.8 7 14C7 15.7 9.2 17 12 17C14.8 17 17 15.7 17 14C17 13.8 17 13.6 16.9 13.5L13.9 3.49996Z" stroke="#09090B" stroke-width="2" stroke-linecap="round" stroke-linejoin="round"/>
</svg>
