<svg width="24" height="24" viewBox="0 0 24 24" fill="none" xmlns="http://www.w3.org/2000/svg">
<path d="M8 3.09998V6.99998C8 8.06084 8.42143 9.07826 9.17157 9.8284C9.92172 10.5785 10.9391 11 12 11C13.0609 11 14.0783 10.5785 14.8284 9.8284C15.5786 9.07826 16 8.06084 16 6.99998V3.09998M9 15L8 14M15 15L16 14M8 19L6 22M16 19L18 22M9 19C6.2 19 4 16.8 4 14V10C4 7.87827 4.84285 5.84344 6.34315 4.34315C7.84344 2.84285 9.87827 2 12 2C14.1217 2 16.1566 2.84285 17.6569 4.34315C19.1571 5.84344 20 7.87827 20 10V14C20 16.8 17.8 19 15 19H9Z" stroke="#09090B" stroke-width="2" stroke-linecap="round" stroke-linejoin="round"/>
</svg>
