<svg width="24" height="24" viewBox="0 0 24 24" fill="none" xmlns="http://www.w3.org/2000/svg">
<path d="M12 19V22M7.9999 19H15.9999C16.8484 18.9967 17.6738 18.7236 18.3569 18.2203C19.04 17.7169 19.5454 17.0094 19.7999 16.2C20.0526 15.3776 20.0334 14.4956 19.7452 13.685C19.457 12.8744 18.9151 12.1783 18.1999 11.7C19.1999 10.6 19.1999 9 18.5999 7.7C17.8999 6.5 16.3999 5.7 14.9999 6C14.9999 5.20435 14.6838 4.44129 14.1212 3.87868C13.5586 3.31607 12.7955 3 11.9999 3C11.2042 3 10.4412 3.31607 9.87858 3.87868C9.31597 4.44129 8.9999 5.20435 8.9999 6C7.5999 5.8 6.0999 6.5 5.3999 7.7C4.6999 9 4.8999 10.6 5.7999 11.7C5.08472 12.1783 4.54281 12.8744 4.25458 13.685C3.96635 14.4956 3.94718 15.3776 4.1999 16.2C4.45444 17.0094 4.95978 17.7169 5.64287 18.2203C6.32596 18.7236 7.15141 18.9967 7.9999 19Z" stroke="#09090B" stroke-width="2" stroke-linecap="round" stroke-linejoin="round"/>
</svg>
