<svg width="24" height="24" viewBox="0 0 24 24" fill="none" xmlns="http://www.w3.org/2000/svg">
<path d="M12 22V19M16.9998 14L19.9998 17.3C20.1369 17.4398 20.2299 17.6167 20.2673 17.8088C20.3048 18.001 20.285 18.1998 20.2105 18.3808C20.1359 18.5618 20.0099 18.717 19.848 18.8271C19.6862 18.9371 19.4955 18.9973 19.2998 19H4.69982C4.5041 18.9973 4.31348 18.9371 4.15161 18.8271C3.98973 18.717 3.86372 18.5618 3.78919 18.3808C3.71466 18.1998 3.69489 18.001 3.73233 17.8088C3.76977 17.6167 3.86278 17.4398 3.99982 17.3L6.99982 14H6.69982C6.5041 13.9973 6.31348 13.9371 6.15161 13.8271C5.98973 13.717 5.86372 13.5619 5.78919 13.3808C5.71466 13.1998 5.69489 13.001 5.73233 12.8088C5.76977 12.6167 5.86278 12.4398 5.99982 12.3L8.99982 9H8.79982C8.59557 9.01843 8.39059 8.97361 8.21267 8.87162C8.03475 8.76963 7.89248 8.6154 7.80516 8.42984C7.71784 8.24428 7.68968 8.03636 7.7245 7.83425C7.75932 7.63215 7.85544 7.44564 7.99982 7.3L11.9998 3L15.9998 7.3C16.1442 7.44564 16.2403 7.63215 16.2751 7.83425C16.31 8.03636 16.2818 8.24428 16.1945 8.42984C16.1072 8.6154 15.9649 8.76963 15.787 8.87162C15.6091 8.97361 15.4041 9.01843 15.1998 9H14.9998L17.9998 12.3C18.1369 12.4398 18.2299 12.6167 18.2673 12.8088C18.3048 13.001 18.285 13.1998 18.2105 13.3808C18.1359 13.5619 18.0099 13.717 17.848 13.8271C17.6862 13.9371 17.4955 13.9973 17.2998 14H16.9998Z" stroke="#09090B" stroke-width="2" stroke-linecap="round" stroke-linejoin="round"/>
</svg>
