<svg width="24" height="24" viewBox="0 0 24 24" fill="none" xmlns="http://www.w3.org/2000/svg">
<path d="M21.73 18L13.73 4.00001C13.5556 3.69222 13.3026 3.4362 12.9969 3.25808C12.6913 3.07996 12.3438 2.98611 11.99 2.98611C11.6362 2.98611 11.2888 3.07996 10.9831 3.25808C10.6774 3.4362 10.4244 3.69222 10.25 4.00001L2.25001 18C2.07369 18.3054 1.98123 18.6519 1.98201 19.0045C1.9828 19.3571 2.07678 19.7033 2.25445 20.0078C2.43212 20.3124 2.68715 20.5646 2.9937 20.7388C3.30025 20.9131 3.64741 21.0032 4.00001 21H20C20.3509 20.9997 20.6955 20.907 20.9993 20.7313C21.303 20.5556 21.5552 20.3031 21.7305 19.9991C21.9058 19.6951 21.998 19.3504 21.998 18.9995C21.9979 18.6486 21.9055 18.3039 21.73 18Z" stroke="#09090B" stroke-width="2" stroke-linecap="round" stroke-linejoin="round"/>
</svg>
