<svg width="24" height="24" viewBox="0 0 24 24" fill="none" xmlns="http://www.w3.org/2000/svg">
<path d="M10 15H6C4.93913 15 3.92172 15.4214 3.17157 16.1716C2.42143 16.9217 2 17.9391 2 19V21M21.6998 16.4L20.7998 16.1M15.1998 13.9L14.2998 13.6M16.6001 18.7001L16.9001 17.8M19.1001 12.2L19.4001 11.3M19.6002 18.7L19.2002 17.7M16.7999 12.3L16.3999 11.3M14.2998 16.6L15.2998 16.2M20.7002 13.8L21.7002 13.4M21 15C21 16.6569 19.6569 18 18 18C16.3431 18 15 16.6569 15 15C15 13.3431 16.3431 12 18 12C19.6569 12 21 13.3431 21 15ZM13 7C13 9.20914 11.2091 11 9 11C6.79086 11 5 9.20914 5 7C5 4.79086 6.79086 3 9 3C11.2091 3 13 4.79086 13 7Z" stroke="#09090B" stroke-width="2" stroke-linecap="round" stroke-linejoin="round"/>
</svg>
