<svg width="24" height="24" viewBox="0 0 24 24" fill="none" xmlns="http://www.w3.org/2000/svg">
<path d="M10.5002 13.4999C9.58257 13.0793 8.57367 12.897 7.56688 12.9699C6.5601 13.0427 5.58797 13.3684 4.74049 13.9168C3.89301 14.4652 3.19758 15.2185 2.71858 16.107C2.23958 16.9955 1.99248 17.9906 2.00017 18.9999M21.6998 16.4L20.7998 16.1M15.1998 13.9L14.2998 13.6M16.6001 18.7001L16.9001 17.8M19.1001 12.2L19.4001 11.3M19.6002 18.7L19.2002 17.7M16.7999 12.3L16.3999 11.3M14.2998 16.6L15.2998 16.2M20.7002 13.8L21.7002 13.4M21 15C21 16.6569 19.6569 18 18 18C16.3431 18 15 16.6569 15 15C15 13.3431 16.3431 12 18 12C19.6569 12 21 13.3431 21 15ZM12 9C12 11.2091 10.2091 13 8 13C5.79086 13 4 11.2091 4 9C4 6.79086 5.79086 5 8 5C10.2091 5 12 6.79086 12 9Z" stroke="#09090B" stroke-width="2" stroke-linecap="round" stroke-linejoin="round"/>
</svg>
