<svg width="24" height="24" viewBox="0 0 24 24" fill="none" xmlns="http://www.w3.org/2000/svg">
<path d="M15.9999 2L13.6999 4.3C13.1502 4.86079 12.8423 5.61474 12.8423 6.4C12.8423 7.18526 13.1502 7.93921 13.6999 8.5L15.4999 10.3C16.0606 10.8497 16.8146 11.1576 17.5999 11.1576C18.3851 11.1576 19.1391 10.8497 19.6999 10.3L21.9999 8M15.0002 15L3.30016 3.30005C2.90104 3.6911 2.58397 4.15787 2.36751 4.673C2.15105 5.18813 2.03955 5.74128 2.03955 6.30005C2.03955 6.85881 2.15105 7.41196 2.36751 7.9271C2.58397 8.44223 2.90104 8.90899 3.30016 9.30005L10.6002 16.6C11.3002 17.3 12.6002 17.3 13.4002 16.6L15.0002 15ZM15.0002 15L22.0002 22M2.1001 21.8L8.5001 15.5M19 5L12 12" stroke="#09090B" stroke-width="2" stroke-linecap="round" stroke-linejoin="round"/>
</svg>
