<svg width="24" height="24" viewBox="0 0 24 24" fill="none" xmlns="http://www.w3.org/2000/svg">
<path d="M12 10V12L13 13M16.1299 7.66L15.3199 3.61C15.2284 3.14961 14.978 2.73604 14.6123 2.4417C14.2467 2.14737 13.7892 1.99101 13.3199 2H10.6399C10.1706 1.99101 9.71305 2.14737 9.34741 2.4417C8.98177 2.73604 8.73131 3.14961 8.63986 3.61L7.85986 7.66M7.87988 16.3601L8.67988 20.3601C8.77133 20.8205 9.02179 21.234 9.38743 21.5284C9.75307 21.8227 10.2106 21.9791 10.6799 21.9701H13.3999C13.8692 21.9791 14.3267 21.8227 14.6923 21.5284C15.058 21.234 15.3084 20.8205 15.3999 20.3601L16.2099 16.3101M18 12C18 15.3137 15.3137 18 12 18C8.68629 18 6 15.3137 6 12C6 8.68629 8.68629 6 12 6C15.3137 6 18 8.68629 18 12Z" stroke="#09090B" stroke-width="2" stroke-linecap="round" stroke-linejoin="round"/>
</svg>
