<svg width="24" height="24" viewBox="0 0 24 24" fill="none" xmlns="http://www.w3.org/2000/svg">
<g clip-path="url(#clip0_2324_2188)">
<path d="M10 15L15 12L10 9V15Z" stroke="#09090B" stroke-width="2" stroke-linejoin="round"/>
<path d="M19 12C19 15.866 15.866 19 12 19C8.13401 19 5 15.866 5 12C5 8.13401 8.13401 5 12 5C15.866 5 19 8.13401 19 12Z" stroke="#09090B" stroke-width="2" stroke-linejoin="round"/>
<path d="M23 12C23 18.0751 18.0751 23 12 23C5.92487 23 1 18.0751 1 12C1 5.92487 5.92487 1 12 1C18.0751 1 23 5.92487 23 12Z" stroke="#09090B" stroke-width="2" stroke-linejoin="round"/>
</g>
<defs>
<clipPath id="clip0_2324_2188">
<rect width="24" height="24" fill="white"/>
</clipPath>
</defs>
</svg>
