<svg width="24" height="24" viewBox="0 0 24 24" fill="none" xmlns="http://www.w3.org/2000/svg">
<g clip-path="url(#clip0_2324_2187)">
<path d="M4 6.6C9.36345 5.71146 14.8366 5.71146 20.2 6.6M9.45337 3.00431C11.4677 2.89659 13.4871 2.91193 15.5 3.05036M2.52393 21C1.82536 17.7033 1.82536 14.2967 2.52393 11C2.61572 10.6652 2.79307 10.3601 3.03854 10.1146C3.28401 9.86914 3.58914 9.69179 3.92393 9.6C9.28738 8.71146 14.7605 8.71146 20.1239 9.6C20.4587 9.69179 20.7639 9.86914 21.0093 10.1146C21.2548 10.3601 21.4321 10.6652 21.5239 11C22.2225 14.2967 22.2225 17.7033 21.5239 21C21.4321 21.3348 21.2548 21.6399 21.0093 21.8854C20.7639 22.1309 20.4587 22.3082 20.1239 22.4C14.7605 23.2887 9.28737 23.2887 3.92393 22.4C3.58914 22.3082 3.28401 22.1309 3.03854 21.8854C2.79307 21.6399 2.61572 21.3348 2.52393 21ZM10.0239 19L15.0239 16L10.0239 13V19Z" stroke="#09090B" stroke-width="2" stroke-linecap="round" stroke-linejoin="round"/>
</g>
<defs>
<clipPath id="clip0_2324_2187">
<rect width="24" height="24" fill="white"/>
</clipPath>
</defs>
</svg>
