<svg width="24" height="24" viewBox="0 0 24 24" fill="none" xmlns="http://www.w3.org/2000/svg">
<path fill-rule="evenodd" clip-rule="evenodd" d="M5.16138 6.80977C3.09453 7.96885 2.38637 10.5359 3.57967 12.5435C4.19543 13.5794 5.19717 14.264 6.30657 14.5247L5.16138 15.1669C3.09453 16.326 2.38637 18.893 3.57967 20.9006C4.77297 22.9082 7.41584 23.596 9.4827 22.437L18.8386 17.1902C20.9055 16.0312 21.6136 13.4641 20.4203 11.4565C19.8046 10.4206 18.8028 9.73603 17.6934 9.47534L18.8386 8.83312C20.9055 7.67405 21.6136 5.10697 20.4203 3.09939C19.227 1.09182 16.5842 0.403968 14.5173 1.56304L5.16138 6.80977Z" stroke="#09090B" stroke-width="2" stroke-linecap="round" stroke-linejoin="round"/>
<path d="M10 15L15 12L10 9V15Z" stroke="#09090B" stroke-width="2" stroke-linecap="round" stroke-linejoin="round"/>
</svg>
