<svg width="103" height="23" viewBox="0 0 103 23" fill="none" xmlns="http://www.w3.org/2000/svg">
<g id="YouTube_Logo_2017 1" clip-path="url(#clip0_2310_1955)">
<g id="Group">
<g id="Group_2">
<path id="Subtract" fill-rule="evenodd" clip-rule="evenodd" d="M29.2563 0.687213C30.6704 1.06586 31.7819 2.17745 32.1603 3.59196C32.8444 6.15321 32.8472 11.5002 32.8472 11.5002C32.8472 11.5002 32.8472 16.8472 32.1603 19.4085C31.7819 20.823 30.6704 21.9346 29.2563 22.3132C26.6958 23.0002 16.4235 23.0002 16.4235 23.0002C16.4235 23.0002 6.1514 23.0002 3.59079 22.3132C2.17666 21.9346 1.06534 20.823 0.686795 19.4085C0 16.8472 0 11.5002 0 11.5002C0 11.5002 0 6.15321 0.686795 3.59196C1.06534 2.17745 2.17666 1.06586 3.59079 0.687213C6.1514 0.000244141 16.4235 0.000244141 16.4235 0.000244141C16.4235 0.000244141 26.6958 0.000244141 29.2563 0.687213ZM21.6695 11.5005L13.1359 16.4282V6.57268L21.6695 11.5005Z" fill="white"/>
</g>
<g id="Group_3">
<g id="youtube-paths">
<path id="Vector" d="M39.7829 14.9541L36.0947 1.63126H39.3124L40.6049 7.67063C40.9348 9.15816 41.1754 10.4266 41.3322 11.476H41.4268C41.535 10.7241 41.7784 9.46379 42.1542 7.69227L43.4926 1.63126H46.7103L42.9762 14.9541V21.3451H39.7802V14.9541H39.7829Z" fill="white"/>
<path id="Vector_2" d="M47.6784 20.9227C47.0295 20.4846 46.5671 19.803 46.2913 18.8781C46.0182 17.9531 45.8804 16.7253 45.8804 15.189V13.0983C45.8804 11.5485 46.0372 10.3018 46.3508 9.36327C46.6645 8.42478 47.1539 7.73781 47.819 7.30778C48.4842 6.87775 49.3575 6.66138 50.4392 6.66138C51.5045 6.66138 52.3562 6.88045 52.9997 7.3186C53.6405 7.75674 54.111 8.44371 54.4084 9.37409C54.7058 10.3072 54.8546 11.5485 54.8546 13.0983V15.189C54.8546 16.7253 54.7086 17.9585 54.4193 18.8889C54.13 19.822 53.6595 20.5036 53.0105 20.9336C52.3616 21.3637 51.4801 21.58 50.3688 21.58C49.2223 21.5826 48.3274 21.3609 47.6784 20.9227ZM51.3179 18.6671C51.4963 18.1966 51.5883 17.4311 51.5883 16.3655V11.8786C51.5883 10.8454 51.4991 10.0881 51.3179 9.6121C51.1367 9.13339 50.8204 8.89538 50.3661 8.89538C49.9281 8.89538 49.6171 9.13339 49.4387 9.6121C49.2575 10.0908 49.1683 10.8454 49.1683 11.8786V16.3655C49.1683 17.4311 49.2548 18.1992 49.4279 18.6671C49.6009 19.1377 49.9118 19.373 50.3661 19.373C50.8204 19.373 51.1367 19.1377 51.3179 18.6671Z" fill="white"/>
<path id="Vector_3" d="M65.3211 21.3479H62.7849L62.5037 19.5845H62.4334C61.7438 20.9152 60.7109 21.5804 59.332 21.5804C58.3775 21.5804 57.6718 21.2667 57.2176 20.642C56.7633 20.0145 56.5361 19.0355 56.5361 17.7048V6.94316H59.7782V17.5154C59.7782 18.1592 59.8484 18.6162 59.989 18.8894C60.1297 19.1626 60.3649 19.3005 60.6947 19.3005C60.9759 19.3005 61.2464 19.214 61.506 19.0409C61.7656 18.8677 61.9548 18.6486 62.0818 18.3837V6.94046H65.3211V21.3479Z" fill="white"/>
<path id="Vector_4" d="M74.128 4.24075H70.9104V21.3473H67.7387V4.24075H64.521V1.63351H74.128V4.24075Z" fill="white"/>
<path id="Vector_5" d="M81.9476 21.3479H79.4114L79.1301 19.5845H79.0599C78.3704 20.9152 77.3375 21.5804 75.9584 21.5804C75.004 21.5804 74.2983 21.2667 73.844 20.642C73.3898 20.0145 73.1626 19.0355 73.1626 17.7048V6.94316H76.4046V17.5154C76.4046 18.1592 76.4749 18.6162 76.6155 18.8894C76.7561 19.1626 76.9913 19.3005 77.3213 19.3005C77.6024 19.3005 77.8728 19.214 78.1324 19.0409C78.392 18.8677 78.5813 18.6486 78.7083 18.3837V6.94046H81.9476V21.3479Z" fill="white"/>
<path id="Vector_6" d="M92.677 9.24453C92.4796 8.33579 92.1632 7.67857 91.7253 7.27017C91.2873 6.86178 90.6843 6.65893 89.9164 6.65893C89.3215 6.65893 88.7645 6.82661 88.248 7.16469C87.7316 7.50277 87.3314 7.94362 87.0501 8.49265H87.0259V0.903534H83.9028V21.3449H86.5797L86.9095 19.9818H86.9799C87.2313 20.4686 87.6072 20.85 88.1074 21.134C88.6077 21.4153 89.1647 21.5559 89.7758 21.5559C90.8708 21.5559 91.6793 21.0502 92.1958 20.0413C92.7122 19.0297 92.9717 17.453 92.9717 15.3056V13.0256C92.9717 11.4163 92.8717 10.1533 92.677 9.24453ZM89.7054 15.1216C89.7054 16.171 89.6622 16.9932 89.5756 17.5882C89.4891 18.1832 89.3458 18.6079 89.1403 18.8567C88.9375 19.1082 88.6617 19.2326 88.3183 19.2326C88.0506 19.2326 87.8046 19.1704 87.5774 19.0433C87.3503 18.9189 87.1665 18.7296 87.0259 18.4807V10.3047C87.134 9.91256 87.3233 9.59343 87.591 9.3419C87.856 9.09037 88.148 8.96595 88.4589 8.96595C88.7888 8.96595 89.0429 9.09578 89.2215 9.35272C89.4026 9.61236 89.527 10.0451 89.5973 10.6563C89.6676 11.2676 89.7027 12.1357 89.7027 13.2635V15.1216H89.7054Z" fill="white"/>
<path id="Vector_7" d="M97.5708 15.9519C97.5708 16.8768 97.5978 17.5692 97.652 18.0318C97.706 18.4942 97.8196 18.8296 97.9926 19.0433C98.1656 19.2542 98.4307 19.3597 98.7903 19.3597C99.2743 19.3597 99.6096 19.1704 99.788 18.7945C99.9692 18.4185 100.067 17.7911 100.083 16.9148L102.879 17.0797C102.895 17.2041 102.903 17.3772 102.903 17.5963C102.903 18.9269 102.538 19.9223 101.811 20.5795C101.083 21.2367 100.053 21.5666 98.7227 21.5666C97.1247 21.5666 96.0052 21.0663 95.3644 20.0629C94.7209 19.0595 94.4019 17.5098 94.4019 15.4109V12.8957C94.4019 10.7347 94.7345 9.15523 95.3996 8.15994C96.0648 7.16464 97.2031 6.66699 98.8173 6.66699C99.9286 6.66699 100.783 6.86984 101.378 7.27824C101.973 7.68663 102.392 8.3195 102.635 9.18228C102.879 10.045 103 11.2351 103 12.755V15.2216H97.5708V15.9519ZM97.9818 9.16335C97.8168 9.36619 97.7088 9.69886 97.652 10.1613C97.5978 10.6238 97.5708 11.3243 97.5708 12.2656V13.2987H99.9422V12.2656C99.9422 11.3405 99.9097 10.6401 99.8476 10.1613C99.7854 9.68263 99.6718 9.34726 99.5068 9.14983C99.3419 8.9551 99.0877 8.85502 98.7443 8.85502C98.3982 8.85773 98.144 8.9605 97.9818 9.16335Z" fill="white"/>
</g>
</g>
</g>
</g>
<defs>
<clipPath id="clip0_2310_1955">
<rect width="103" height="23" fill="white"/>
</clipPath>
</defs>
</svg>
