<svg width="80" height="90" viewBox="0 0 80 90" fill="none" xmlns="http://www.w3.org/2000/svg">
<g id="Group 1">
<path id="Rectangle 15" d="M68 -5.24537e-07C74.6274 -2.34843e-07 80 5.37258 80 12L80 78C80 84.6274 74.6274 90 68 90L12 90C5.37259 90 3.93021e-06 84.6274 4.21991e-06 78L7.10486e-06 12C7.39455e-06 5.37258 5.37259 -3.26207e-06 12 -2.97237e-06L68 -5.24537e-07Z" fill="#FF0000"/>
<path id="Subtract" fill-rule="evenodd" clip-rule="evenodd" d="M52.136 31.4694C50.4672 28.2957 46.5413 27.0782 43.3706 28.7495L29.4673 36.1373C26.2966 37.8086 25.0791 41.735 26.748 44.9087C27.8696 47.042 30.0118 48.2899 32.2578 48.373L29.6506 49.7592C26.4799 51.4305 25.2624 55.3568 26.9313 58.5306C28.6001 61.7043 32.5259 62.9218 35.6967 61.2505L49.5999 53.8627C52.7734 52.1914 53.9881 48.265 52.3193 45.0913C51.1976 42.958 49.0555 41.7101 46.8094 41.627L49.4166 40.2408C52.5874 38.5695 53.8048 34.6432 52.136 31.4694ZM35.8663 39.7677L35.8662 39.7676V50.2517L35.8663 50.2517L44.2815 45.0221L35.8663 39.7677Z" fill="white"/>
</g>
</svg>
